<svg xmlns="http://www.w3.org/2000/svg" xmlns:xlink="http://www.w3.org/1999/xlink" viewBox="0 0 600 600" width="600" height="600" preserveAspectRatio="xMidYMid meet" style="width: 100%; height: 100%; transform: translate3d(0px, 0px, 0px); content-visibility: visible;"><defs><clipPath id="__lottie_element_2"><rect width="600" height="600" x="0" y="0"></rect></clipPath></defs><g clip-path="url(#__lottie_element_2)"><g transform="matrix(1,0,0,1,300,300)" opacity="1" style="display: block;"><g opacity="1" transform="matrix(1,0,0,1,0,0)"><g opacity="1" transform="matrix(1,0,0,1,0,0)"><path fill="rgb(235,235,235)" fill-opacity="1" d=" M250,132.6479949951172 C250,132.6479949951172 -250,132.6479949951172 -250,132.6479949951172 C-250,132.6479949951172 -250,132.3979949951172 -250,132.3979949951172 C-250,132.3979949951172 250,132.3979949951172 250,132.3979949951172 C250,132.3979949951172 250,132.6479949951172 250,132.6479949951172z"></path></g><g opacity="1" transform="matrix(1,0,0,1,0,0)"><path fill="rgb(235,235,235)" fill-opacity="1" d=" M40.20800018310547,139.45799255371094 C40.20800018310547,139.45799255371094 65.66699981689453,139.45799255371094 65.66699981689453,139.45799255371094 C65.66699981689453,139.45799255371094 65.66699981689453,139.20799255371094 65.66699981689453,139.20799255371094 C65.66699981689453,139.20799255371094 40.20800018310547,139.20799255371094 40.20800018310547,139.20799255371094 C40.20800018310547,139.20799255371094 40.20800018310547,139.45799255371094 40.20800018310547,139.45799255371094z"></path></g><g opacity="1" transform="matrix(1,0,0,1,0,0)"><path fill="rgb(235,235,235)" fill-opacity="1" d=" M145.11099243164062,144.86900329589844 C145.11099243164062,144.86900329589844 205.44400024414062,144.86900329589844 205.44400024414062,144.86900329589844 C205.44400024414062,144.86900329589844 205.44400024414062,144.61900329589844 205.44400024414062,144.61900329589844 C205.44400024414062,144.61900329589844 145.11099243164062,144.61900329589844 145.11099243164062,144.61900329589844 C145.11099243164062,144.61900329589844 145.11099243164062,144.86900329589844 145.11099243164062,144.86900329589844z"></path></g><g opacity="1" transform="matrix(1,0,0,1,0,0)"><path fill="rgb(235,235,235)" fill-opacity="1" d=" M-27.541000366210938,139.58299255371094 C-27.541000366210938,139.58299255371094 34.79199981689453,139.58299255371094 34.79199981689453,139.58299255371094 C34.79199981689453,139.58299255371094 34.79199981689453,139.33299255371094 34.79199981689453,139.33299255371094 C34.79199981689453,139.33299255371094 -27.541000366210938,139.33299255371094 -27.541000366210938,139.33299255371094 C-27.541000366210938,139.33299255371094 -27.541000366210938,139.58299255371094 -27.541000366210938,139.58299255371094z"></path></g><g opacity="1" transform="matrix(1,0,0,1,0,0)"><path fill="rgb(235,235,235)" fill-opacity="1" d=" M-81,147.06399536132812 C-81,147.06399536132812 -67.95899963378906,147.06399536132812 -67.95899963378906,147.06399536132812 C-67.95899963378906,147.06399536132812 -67.95899963378906,146.81399536132812 -67.95899963378906,146.81399536132812 C-67.95899963378906,146.81399536132812 -81,146.81399536132812 -81,146.81399536132812 C-81,146.81399536132812 -81,147.06399536132812 -81,147.06399536132812z"></path></g><g opacity="1" transform="matrix(1,0,0,1,0,0)"><path fill="rgb(235,235,235)" fill-opacity="1" d=" M-55.29199981689453,147.06399536132812 C-55.29199981689453,147.06399536132812 4.084000110626221,147.06399536132812 4.084000110626221,147.06399536132812 C4.084000110626221,147.06399536132812 4.084000110626221,146.81399536132812 4.084000110626221,146.81399536132812 C4.084000110626221,146.81399536132812 -55.29199981689453,146.81399536132812 -55.29199981689453,146.81399536132812 C-55.29199981689453,146.81399536132812 -55.29199981689453,147.06399536132812 -55.29199981689453,147.06399536132812z"></path></g><g opacity="1" transform="matrix(1,0,0,1,0,0)"><path fill="rgb(235,235,235)" fill-opacity="1" d=" M-197.54100036621094,142.8419952392578 C-197.54100036621094,142.8419952392578 -159.08700561523438,142.8419952392578 -159.08700561523438,142.8419952392578 C-159.08700561523438,142.8419952392578 -159.08700561523438,142.5919952392578 -159.08700561523438,142.5919952392578 C-159.08700561523438,142.5919952392578 -197.54100036621094,142.5919952392578 -197.54100036621094,142.5919952392578 C-197.54100036621094,142.5919952392578 -197.54100036621094,142.8419952392578 -197.54100036621094,142.8419952392578z"></path></g><g opacity="1" transform="matrix(1,0,0,1,0,0)"><path fill="rgb(235,235,235)" fill-opacity="1" d=" M-12.986000061035156,87.80000305175781 C-12.986000061035156,87.80000305175781 -206.0850067138672,87.80000305175781 -206.0850067138672,87.80000305175781 C-209.23199462890625,87.80000305175781 -211.79299926757812,85.23999786376953 -211.79299926757812,82.09200286865234 C-211.79299926757812,82.09200286865234 -211.79299926757812,-189.33999633789062 -211.79299926757812,-189.33999633789062 C-211.79299926757812,-192.48699951171875 -209.23199462890625,-195.0469970703125 -206.0850067138672,-195.0469970703125 C-206.0850067138672,-195.0469970703125 -12.986000061035156,-195.0469970703125 -12.986000061035156,-195.0469970703125 C-9.84000015258789,-195.0469970703125 -7.2789998054504395,-192.48699951171875 -7.2789998054504395,-189.33999633789062 C-7.2789998054504395,-189.33999633789062 -7.2789998054504395,82.09200286865234 -7.2789998054504395,82.09200286865234 C-7.2789998054504395,85.23999786376953 -9.84000015258789,87.80000305175781 -12.986000061035156,87.80000305175781z M-206.0850067138672,-194.7969970703125 C-209.09500122070312,-194.7969970703125 -211.54299926757812,-192.3489990234375 -211.54299926757812,-189.33999633789062 C-211.54299926757812,-189.33999633789062 -211.54299926757812,82.09200286865234 -211.54299926757812,82.09200286865234 C-211.54299926757812,85.10199737548828 -209.09500122070312,87.55000305175781 -206.0850067138672,87.55000305175781 C-206.0850067138672,87.55000305175781 -12.986000061035156,87.55000305175781 -12.986000061035156,87.55000305175781 C-9.97700023651123,87.55000305175781 -7.5289998054504395,85.10199737548828 -7.5289998054504395,82.09200286865234 C-7.5289998054504395,82.09200286865234 -7.5289998054504395,-189.33999633789062 -7.5289998054504395,-189.33999633789062 C-7.5289998054504395,-192.3489990234375 -9.97700023651123,-194.7969970703125 -12.986000061035156,-194.7969970703125 C-12.986000061035156,-194.7969970703125 -206.0850067138672,-194.7969970703125 -206.0850067138672,-194.7969970703125z"></path></g><g opacity="1" transform="matrix(1,0,0,1,0,0)"><path fill="rgb(235,235,235)" fill-opacity="1" d=" M203.31100463867188,87.80000305175781 C203.31100463867188,87.80000305175781 10.211999893188477,87.80000305175781 10.211999893188477,87.80000305175781 C7.065999984741211,87.80000305175781 4.505000114440918,85.23999786376953 4.505000114440918,82.09200286865234 C4.505000114440918,82.09200286865234 4.505000114440918,-189.33999633789062 4.505000114440918,-189.33999633789062 C4.505000114440918,-192.48699951171875 7.065999984741211,-195.0469970703125 10.211999893188477,-195.0469970703125 C10.211999893188477,-195.0469970703125 203.31100463867188,-195.0469970703125 203.31100463867188,-195.0469970703125 C206.45899963378906,-195.0469970703125 209.0189971923828,-192.48699951171875 209.0189971923828,-189.33999633789062 C209.0189971923828,-189.33999633789062 209.0189971923828,82.09200286865234 209.0189971923828,82.09200286865234 C209.0189971923828,85.23999786376953 206.45899963378906,87.80000305175781 203.31100463867188,87.80000305175781z M10.211999893188477,-194.7969970703125 C7.203000068664551,-194.7969970703125 4.755000114440918,-192.3489990234375 4.755000114440918,-189.33999633789062 C4.755000114440918,-189.33999633789062 4.755000114440918,82.09200286865234 4.755000114440918,82.09200286865234 C4.755000114440918,85.10199737548828 7.203000068664551,87.55000305175781 10.211999893188477,87.55000305175781 C10.211999893188477,87.55000305175781 203.31100463867188,87.55000305175781 203.31100463867188,87.55000305175781 C206.3209991455078,87.55000305175781 208.7689971923828,85.10199737548828 208.7689971923828,82.09200286865234 C208.7689971923828,82.09200286865234 208.7689971923828,-189.33999633789062 208.7689971923828,-189.33999633789062 C208.7689971923828,-192.3489990234375 206.3209991455078,-194.7969970703125 203.31100463867188,-194.7969970703125 C203.31100463867188,-194.7969970703125 10.211999893188477,-194.7969970703125 10.211999893188477,-194.7969970703125z"></path></g></g><g opacity="1" transform="matrix(1,0,0,1,0,0)"><g opacity="1" transform="matrix(1,0,0,1,0,0)"><g opacity="1" transform="matrix(1,0,0,1,0,0)"><g opacity="1" transform="matrix(1,0,0,1,0,0)"><path fill="rgb(230,230,230)" fill-opacity="1" d=" M-54.03799819946289,45.66699981689453 C-54.03799819946289,45.66699981689453 -120.43900299072266,45.66699981689453 -120.43900299072266,45.66699981689453 C-120.43900299072266,45.66699981689453 -124.47000122070312,-0.8330000042915344 -124.47000122070312,-0.8330000042915344 C-124.47000122070312,-0.8330000042915344 -58.069000244140625,-0.8330000042915344 -58.069000244140625,-0.8330000042915344 C-58.069000244140625,-0.8330000042915344 -54.03799819946289,45.66699981689453 -54.03799819946289,45.66699981689453z"></path></g><g opacity="1" transform="matrix(1,0,0,1,0,0)"><path fill="rgb(240,240,240)" fill-opacity="1" d=" M-50.5989990234375,45.66699981689453 C-50.5989990234375,45.66699981689453 -116.9990005493164,45.66699981689453 -116.9990005493164,45.66699981689453 C-116.9990005493164,45.66699981689453 -121.02999877929688,-0.8330000042915344 -121.02999877929688,-0.8330000042915344 C-121.02999877929688,-0.8330000042915344 -54.630001068115234,-0.8330000042915344 -54.630001068115234,-0.8330000042915344 C-54.630001068115234,-0.8330000042915344 -50.5989990234375,45.66699981689453 -50.5989990234375,45.66699981689453z"></path></g><g opacity="1" transform="matrix(1,0,0,1,0,0)"><path fill="rgb(255,255,255)" fill-opacity="1" d=" M-107.9229965209961,35.680999755859375 C-107.9229965209961,35.680999755859375 -110.13700103759766,9.152000427246094 -110.13700103759766,9.152000427246094 C-110.13700103759766,9.152000427246094 -63.707000732421875,9.152000427246094 -63.707000732421875,9.152000427246094 C-63.707000732421875,9.152000427246094 -61.49399948120117,35.680999755859375 -61.49399948120117,35.680999755859375 C-61.49399948120117,35.680999755859375 -107.9229965209961,35.680999755859375 -107.9229965209961,35.680999755859375z"></path></g></g><g opacity="1" transform="matrix(1,0,0,1,0,0)"><g opacity="1" transform="matrix(1,0,0,1,0,0)"><path fill="rgb(230,230,230)" fill-opacity="1" d=" M-39.11000061035156,132.39700317382812 C-39.11000061035156,132.39700317382812 -46.9010009765625,132.39700317382812 -46.9010009765625,132.39700317382812 C-46.9010009765625,132.39700317382812 -46.9010009765625,45.66699981689453 -46.9010009765625,45.66699981689453 C-46.9010009765625,45.66699981689453 -39.11000061035156,45.66699981689453 -39.11000061035156,45.66699981689453 C-39.11000061035156,45.66699981689453 -39.11000061035156,132.39700317382812 -39.11000061035156,132.39700317382812z"></path></g><g opacity="1" transform="matrix(1,0,0,1,0,0)"><path fill="rgb(240,240,240)" fill-opacity="1" d=" M-36.652000427246094,132.39700317382812 C-36.652000427246094,132.39700317382812 -42.0620002746582,132.39700317382812 -42.0620002746582,132.39700317382812 C-42.0620002746582,132.39700317382812 -42.0620002746582,45.66699981689453 -42.0620002746582,45.66699981689453 C-42.0620002746582,45.66699981689453 -36.652000427246094,45.66699981689453 -36.652000427246094,45.66699981689453 C-36.652000427246094,45.66699981689453 -36.652000427246094,132.39700317382812 -36.652000427246094,132.39700317382812z"></path></g><g opacity="1" transform="matrix(1,0,0,1,0,0)"><path fill="rgb(240,240,240)" fill-opacity="1" d=" M-112.06099700927734,55.23899841308594 C-112.06099700927734,55.23899841308594 -36.652000427246094,55.23899841308594 -36.652000427246094,55.23899841308594 C-36.652000427246094,55.23899841308594 -36.652000427246094,45.66699981689453 -36.652000427246094,45.66699981689453 C-36.652000427246094,45.66699981689453 -112.06099700927734,45.66699981689453 -112.06099700927734,45.66699981689453 C-112.06099700927734,45.66699981689453 -112.06099700927734,55.23899841308594 -112.06099700927734,55.23899841308594z"></path></g><g opacity="1" transform="matrix(1,0,0,1,0,0)"><path fill="rgb(230,230,230)" fill-opacity="1" d=" M-109.3949966430664,132.39700317382812 C-109.3949966430664,132.39700317382812 -117.18599700927734,132.39700317382812 -117.18599700927734,132.39700317382812 C-117.18599700927734,132.39700317382812 -117.18599700927734,55.23899841308594 -117.18599700927734,55.23899841308594 C-117.18599700927734,55.23899841308594 -109.3949966430664,55.23899841308594 -109.3949966430664,55.23899841308594 C-109.3949966430664,55.23899841308594 -109.3949966430664,132.39700317382812 -109.3949966430664,132.39700317382812z"></path></g><g opacity="1" transform="matrix(1,0,0,1,0,0)"><path fill="rgb(240,240,240)" fill-opacity="1" d=" M-106.93599700927734,132.39700317382812 C-106.93599700927734,132.39700317382812 -112.34700012207031,132.39700317382812 -112.34700012207031,132.39700317382812 C-112.34700012207031,132.39700317382812 -112.34700012207031,55.23899841308594 -112.34700012207031,55.23899841308594 C-112.34700012207031,55.23899841308594 -106.93599700927734,55.23899841308594 -106.93599700927734,55.23899841308594 C-106.93599700927734,55.23899841308594 -106.93599700927734,132.39700317382812 -106.93599700927734,132.39700317382812z"></path></g><g opacity="1" transform="matrix(1,0,0,1,0,0)"><path fill="rgb(230,230,230)" fill-opacity="1" d=" M-164.8520050048828,132.39700317382812 C-164.8520050048828,132.39700317382812 -172.64300537109375,132.39700317382812 -172.64300537109375,132.39700317382812 C-172.64300537109375,132.39700317382812 -172.64300537109375,55.23899841308594 -172.64300537109375,55.23899841308594 C-172.64300537109375,55.23899841308594 -164.8520050048828,55.23899841308594 -164.8520050048828,55.23899841308594 C-164.8520050048828,55.23899841308594 -164.8520050048828,132.39700317382812 -164.8520050048828,132.39700317382812z"></path></g><g opacity="1" transform="matrix(1,0,0,1,0,0)"><path fill="rgb(240,240,240)" fill-opacity="1" d=" M-162.39300537109375,132.39700317382812 C-162.39300537109375,132.39700317382812 -167.8040008544922,132.39700317382812 -167.8040008544922,132.39700317382812 C-167.8040008544922,132.39700317382812 -167.8040008544922,55.23899841308594 -167.8040008544922,55.23899841308594 C-167.8040008544922,55.23899841308594 -162.39300537109375,55.23899841308594 -162.39300537109375,55.23899841308594 C-162.39300537109375,55.23899841308594 -162.39300537109375,132.39700317382812 -162.39300537109375,132.39700317382812z"></path></g><g opacity="1" transform="matrix(1,0,0,1,0,0)"><path fill="rgb(230,230,230)" fill-opacity="1" d=" M-88.41300201416016,132.39700317382812 C-88.41300201416016,132.39700317382812 -96.2040023803711,132.39700317382812 -96.2040023803711,132.39700317382812 C-96.2040023803711,132.39700317382812 -96.2040023803711,55.23899841308594 -96.2040023803711,55.23899841308594 C-96.2040023803711,55.23899841308594 -88.41300201416016,55.23899841308594 -88.41300201416016,55.23899841308594 C-88.41300201416016,55.23899841308594 -88.41300201416016,132.39700317382812 -88.41300201416016,132.39700317382812z"></path></g><g opacity="1" transform="matrix(1,0,0,1,0,0)"><path fill="rgb(240,240,240)" fill-opacity="1" d=" M-85.95500183105469,132.39700317382812 C-85.95500183105469,132.39700317382812 -91.36499786376953,132.39700317382812 -91.36499786376953,132.39700317382812 C-91.36499786376953,132.39700317382812 -91.36499786376953,55.23899841308594 -91.36499786376953,55.23899841308594 C-91.36499786376953,55.23899841308594 -85.95500183105469,55.23899841308594 -85.95500183105469,55.23899841308594 C-85.95500183105469,55.23899841308594 -85.95500183105469,132.39700317382812 -85.95500183105469,132.39700317382812z"></path></g><g opacity="1" transform="matrix(1,0,0,1,0,0)"><path fill="rgb(230,230,230)" fill-opacity="1" d=" M-112.06099700927734,55.23899841308594 C-112.06099700927734,55.23899841308594 -172.64300537109375,55.23899841308594 -172.64300537109375,55.23899841308594 C-172.64300537109375,55.23899841308594 -172.64300537109375,45.66699981689453 -172.64300537109375,45.66699981689453 C-172.64300537109375,45.66699981689453 -112.06099700927734,45.66699981689453 -112.06099700927734,45.66699981689453 C-112.06099700927734,45.66699981689453 -112.06099700927734,55.23899841308594 -112.06099700927734,55.23899841308594z"></path></g></g></g><g opacity="1" transform="matrix(1,0,0,1,0,0)"><g opacity="1" transform="matrix(1,0,0,1,0,0)"><g opacity="1" transform="matrix(1,0,0,1,0,0)"><path fill="rgb(224,224,224)" fill-opacity="1" d=" M113.83899688720703,-40.13100051879883 C113.83899688720703,-40.13100051879883 -120.49199676513672,-40.13100051879883 -120.49199676513672,-40.13100051879883 C-120.49199676513672,-40.13100051879883 -120.49199676513672,-170.58599853515625 -120.49199676513672,-170.58599853515625 C-120.49199676513672,-170.58599853515625 113.83899688720703,-170.58599853515625 113.83899688720703,-170.58599853515625 C113.83899688720703,-170.58599853515625 113.83899688720703,-40.13100051879883 113.83899688720703,-40.13100051879883z"></path></g><g opacity="1" transform="matrix(1,0,0,1,0,0)"><path fill="rgb(245,245,245)" fill-opacity="1" d=" M126.70600128173828,-40.13100051879883 C126.70600128173828,-40.13100051879883 -119.30899810791016,-40.13100051879883 -119.30899810791016,-40.13100051879883 C-119.30899810791016,-40.13100051879883 -119.30899810791016,-170.58599853515625 -119.30899810791016,-170.58599853515625 C-119.30899810791016,-170.58599853515625 126.70600128173828,-170.58599853515625 126.70600128173828,-170.58599853515625 C126.70600128173828,-170.58599853515625 126.70600128173828,-40.13100051879883 126.70600128173828,-40.13100051879883z"></path></g><g opacity="1" transform="matrix(1,0,0,1,0,0)"><path fill="rgb(255,255,255)" fill-opacity="1" d=" M122.68699645996094,-44.150001525878906 C122.68699645996094,-44.150001525878906 122.68699645996094,-166.56700134277344 122.68699645996094,-166.56700134277344 C122.68699645996094,-166.56700134277344 -115.28900146484375,-166.56700134277344 -115.28900146484375,-166.56700134277344 C-115.28900146484375,-166.56700134277344 -115.28900146484375,-44.150001525878906 -115.28900146484375,-44.150001525878906 C-115.28900146484375,-44.150001525878906 122.68699645996094,-44.150001525878906 122.68699645996094,-44.150001525878906z"></path></g><g opacity="1" transform="matrix(1,0,0,1,0,0)"><path fill="rgb(245,245,245)" fill-opacity="1" d=" M-18.93400001525879,-44.150001525878906 C-18.93400001525879,-44.150001525878906 25.9950008392334,-166.56700134277344 25.9950008392334,-166.56700134277344 C25.9950008392334,-166.56700134277344 -48.15399932861328,-166.56700134277344 -48.15399932861328,-166.56700134277344 C-48.15399932861328,-166.56700134277344 -93.08399963378906,-44.150001525878906 -93.08399963378906,-44.150001525878906 C-93.08399963378906,-44.150001525878906 -18.93400001525879,-44.150001525878906 -18.93400001525879,-44.150001525878906z"></path></g><g opacity="1" transform="matrix(1,0,0,1,0,0)"><path fill="rgb(245,245,245)" fill-opacity="1" d=" M52.441001892089844,-44.150001525878906 C52.441001892089844,-44.150001525878906 97.37000274658203,-166.56700134277344 97.37000274658203,-166.56700134277344 C97.37000274658203,-166.56700134277344 41.433998107910156,-166.56700134277344 41.433998107910156,-166.56700134277344 C41.433998107910156,-166.56700134277344 -3.494999885559082,-44.150001525878906 -3.494999885559082,-44.150001525878906 C-3.494999885559082,-44.150001525878906 52.441001892089844,-44.150001525878906 52.441001892089844,-44.150001525878906z"></path></g></g></g><g opacity="1" transform="matrix(1,0,0,1,0,0)"><g opacity="1" transform="matrix(1,0,0,1,0,0)"><g opacity="1" transform="matrix(1,0,0,1,0,0)"><path fill="rgb(230,230,230)" fill-opacity="1" d=" M188.11099243164062,132.3979949951172 C188.11099243164062,132.3979949951172 168.19200134277344,132.3979949951172 168.19200134277344,132.3979949951172 C168.19200134277344,132.3979949951172 168.19200134277344,7.802999973297119 168.19200134277344,7.802999973297119 C168.19200134277344,7.802999973297119 188.11099243164062,7.802999973297119 188.11099243164062,7.802999973297119 C188.11099243164062,7.802999973297119 188.11099243164062,132.3979949951172 188.11099243164062,132.3979949951172z"></path></g><g opacity="1" transform="matrix(1,0,0,1,0,0)"><path fill="rgb(250,250,250)" fill-opacity="1" d=" M182.87399291992188,132.3979949951172 C182.87399291992188,132.3979949951172 188.11099243164062,132.3979949951172 188.11099243164062,132.3979949951172 C188.11099243164062,132.3979949951172 188.11099243164062,122.80500030517578 188.11099243164062,122.80500030517578 C188.11099243164062,122.80500030517578 177.3820037841797,122.80500030517578 177.3820037841797,122.80500030517578 C177.3820037841797,122.80500030517578 182.87399291992188,132.3979949951172 182.87399291992188,132.3979949951172z"></path></g><g opacity="1" transform="matrix(1,0,0,1,0,0)"><path fill="rgb(230,230,230)" fill-opacity="1" d=" M4.453999996185303,132.3979949951172 C4.453999996185303,132.3979949951172 -15.46500015258789,132.3979949951172 -15.46500015258789,132.3979949951172 C-15.46500015258789,132.3979949951172 -15.46500015258789,7.802999973297119 -15.46500015258789,7.802999973297119 C-15.46500015258789,7.802999973297119 4.453999996185303,7.802999973297119 4.453999996185303,7.802999973297119 C4.453999996185303,7.802999973297119 4.453999996185303,132.3979949951172 4.453999996185303,132.3979949951172z"></path></g><g opacity="1" transform="matrix(1,0,0,1,0,0)"><path fill="rgb(250,250,250)" fill-opacity="1" d=" M188.11099243164062,129.80999755859375 C188.11099243164062,129.80999755859375 -0.11699999868869781,129.80999755859375 -0.11699999868869781,129.80999755859375 C-0.11699999868869781,129.80999755859375 -0.11699999868869781,7.802999973297119 -0.11699999868869781,7.802999973297119 C-0.11699999868869781,7.802999973297119 188.11099243164062,7.802999973297119 188.11099243164062,7.802999973297119 C188.11099243164062,7.802999973297119 188.11099243164062,129.80999755859375 188.11099243164062,129.80999755859375z"></path></g><g opacity="1" transform="matrix(1,0,0,1,0,0)"><path fill="rgb(230,230,230)" fill-opacity="1" d=" M184.54800415039062,47.16899871826172 C184.54800415039062,47.16899871826172 3.446000099182129,47.16899871826172 3.446000099182129,47.16899871826172 C3.446000099182129,47.16899871826172 3.446000099182129,12.711000442504883 3.446000099182129,12.711000442504883 C3.446000099182129,12.711000442504883 184.54800415039062,12.711000442504883 184.54800415039062,12.711000442504883 C184.54800415039062,12.711000442504883 184.54800415039062,47.16899871826172 184.54800415039062,47.16899871826172z M4.446000099182129,46.16899871826172 C4.446000099182129,46.16899871826172 183.54800415039062,46.16899871826172 183.54800415039062,46.16899871826172 C183.54800415039062,46.16899871826172 183.54800415039062,13.711000442504883 183.54800415039062,13.711000442504883 C183.54800415039062,13.711000442504883 4.446000099182129,13.711000442504883 4.446000099182129,13.711000442504883 C4.446000099182129,13.711000442504883 4.446000099182129,46.16899871826172 4.446000099182129,46.16899871826172z"></path></g><g opacity="1" transform="matrix(1,0,0,1,0,0)"><path fill="rgb(230,230,230)" fill-opacity="1" d=" M152.66700744628906,29.44099998474121 C152.66700744628906,29.44099998474121 38.845001220703125,29.44099998474121 38.845001220703125,29.44099998474121 C33.558998107910156,29.44099998474121 28.469999313354492,25.177000045776367 24.885000228881836,17.743000030517578 C24.885000228881836,17.743000030517578 24.538999557495117,17.025999069213867 24.538999557495117,17.025999069213867 C24.538999557495117,17.025999069213867 166.9739990234375,17.025999069213867 166.9739990234375,17.025999069213867 C166.9739990234375,17.025999069213867 166.6280059814453,17.743000030517578 166.6280059814453,17.743000030517578 C163.04299926757812,25.177000045776367 157.95399475097656,29.44099998474121 152.66700744628906,29.44099998474121z M26.141000747680664,18.025999069213867 C29.524999618530273,24.656999588012695 34.125,28.44099998474121 38.845001220703125,28.44099998474121 C38.845001220703125,28.44099998474121 152.66700744628906,28.44099998474121 152.66700744628906,28.44099998474121 C157.38699340820312,28.44099998474121 161.98800659179688,24.656999588012695 165.3719940185547,18.025999069213867 C165.3719940185547,18.025999069213867 26.141000747680664,18.025999069213867 26.141000747680664,18.025999069213867z"></path></g><g opacity="1" transform="matrix(1,0,0,1,0,0)"><path fill="rgb(250,250,250)" fill-opacity="1" d=" M5.120999813079834,132.3979949951172 C5.120999813079834,132.3979949951172 -0.11699999868869781,132.3979949951172 -0.11699999868869781,132.3979949951172 C-0.11699999868869781,132.3979949951172 -0.11699999868869781,122.80500030517578 -0.11699999868869781,122.80500030517578 C-0.11699999868869781,122.80500030517578 10.612000465393066,122.80500030517578 10.612000465393066,122.80500030517578 C10.612000465393066,122.80500030517578 5.120999813079834,132.3979949951172 5.120999813079834,132.3979949951172z"></path></g><g opacity="1" transform="matrix(1,0,0,1,0,0)"><path fill="rgb(230,230,230)" fill-opacity="1" d=" M184.54800415039062,86.03600311279297 C184.54800415039062,86.03600311279297 3.446000099182129,86.03600311279297 3.446000099182129,86.03600311279297 C3.446000099182129,86.03600311279297 3.446000099182129,51.57699966430664 3.446000099182129,51.57699966430664 C3.446000099182129,51.57699966430664 184.54800415039062,51.57699966430664 184.54800415039062,51.57699966430664 C184.54800415039062,51.57699966430664 184.54800415039062,86.03600311279297 184.54800415039062,86.03600311279297z M4.446000099182129,85.03600311279297 C4.446000099182129,85.03600311279297 183.54800415039062,85.03600311279297 183.54800415039062,85.03600311279297 C183.54800415039062,85.03600311279297 183.54800415039062,52.57699966430664 183.54800415039062,52.57699966430664 C183.54800415039062,52.57699966430664 4.446000099182129,52.57699966430664 4.446000099182129,52.57699966430664 C4.446000099182129,52.57699966430664 4.446000099182129,85.03600311279297 4.446000099182129,85.03600311279297z"></path></g><g opacity="1" transform="matrix(1,0,0,1,0,0)"><path fill="rgb(230,230,230)" fill-opacity="1" d=" M152.66700744628906,68.30699920654297 C152.66700744628906,68.30699920654297 38.845001220703125,68.30699920654297 38.845001220703125,68.30699920654297 C33.558998107910156,68.30699920654297 28.469999313354492,64.04299926757812 24.885000228881836,56.60900115966797 C24.885000228881836,56.60900115966797 24.538999557495117,55.891998291015625 24.538999557495117,55.891998291015625 C24.538999557495117,55.891998291015625 166.9739990234375,55.891998291015625 166.9739990234375,55.891998291015625 C166.9739990234375,55.891998291015625 166.6280059814453,56.60900115966797 166.6280059814453,56.60900115966797 C163.04299926757812,64.04299926757812 157.95399475097656,68.30699920654297 152.66700744628906,68.30699920654297z M26.141000747680664,56.891998291015625 C29.524999618530273,63.52299880981445 34.125,67.30699920654297 38.845001220703125,67.30699920654297 C38.845001220703125,67.30699920654297 152.66700744628906,67.30699920654297 152.66700744628906,67.30699920654297 C157.38800048828125,67.30699920654297 161.98800659179688,63.52299880981445 165.3719940185547,56.891998291015625 C165.3719940185547,56.891998291015625 26.141000747680664,56.891998291015625 26.141000747680664,56.891998291015625z"></path></g><g opacity="1" transform="matrix(1,0,0,1,0,0)"><path fill="rgb(230,230,230)" fill-opacity="1" d=" M184.54800415039062,124.9020004272461 C184.54800415039062,124.9020004272461 3.446000099182129,124.9020004272461 3.446000099182129,124.9020004272461 C3.446000099182129,124.9020004272461 3.446000099182129,90.44300079345703 3.446000099182129,90.44300079345703 C3.446000099182129,90.44300079345703 184.54800415039062,90.44300079345703 184.54800415039062,90.44300079345703 C184.54800415039062,90.44300079345703 184.54800415039062,124.9020004272461 184.54800415039062,124.9020004272461z M4.446000099182129,123.9020004272461 C4.446000099182129,123.9020004272461 183.54800415039062,123.9020004272461 183.54800415039062,123.9020004272461 C183.54800415039062,123.9020004272461 183.54800415039062,91.44300079345703 183.54800415039062,91.44300079345703 C183.54800415039062,91.44300079345703 4.446000099182129,91.44300079345703 4.446000099182129,91.44300079345703 C4.446000099182129,91.44300079345703 4.446000099182129,123.9020004272461 4.446000099182129,123.9020004272461z"></path></g><g opacity="1" transform="matrix(1,0,0,1,0,0)"><path fill="rgb(230,230,230)" fill-opacity="1" d=" M152.66700744628906,107.1729965209961 C152.66700744628906,107.1729965209961 38.845001220703125,107.1729965209961 38.845001220703125,107.1729965209961 C33.558998107910156,107.1729965209961 28.469999313354492,102.91000366210938 24.885000228881836,95.47599792480469 C24.885000228881836,95.47599792480469 24.538999557495117,94.75800323486328 24.538999557495117,94.75800323486328 C24.538999557495117,94.75800323486328 166.9739990234375,94.75800323486328 166.9739990234375,94.75800323486328 C166.9739990234375,94.75800323486328 166.6280059814453,95.47599792480469 166.6280059814453,95.47599792480469 C163.04299926757812,102.91000366210938 157.95399475097656,107.1729965209961 152.66700744628906,107.1729965209961z M26.141000747680664,95.75800323486328 C29.524999618530273,102.38899993896484 34.125,106.1729965209961 38.845001220703125,106.1729965209961 C38.845001220703125,106.1729965209961 152.66700744628906,106.1729965209961 152.66700744628906,106.1729965209961 C157.38800048828125,106.1729965209961 161.98800659179688,102.38899993896484 165.3719940185547,95.75800323486328 C165.3719940185547,95.75800323486328 26.141000747680664,95.75800323486328 26.141000747680664,95.75800323486328z"></path></g></g></g><g opacity="1" transform="matrix(1,0,0,1,0,0)"><g opacity="1" transform="matrix(1,0,0,1,0,0)"><path fill="rgb(230,230,230)" fill-opacity="1" d=" M-129.01699829101562,24.283000946044922 C-129.01699829101562,24.283000946044922 -129.01699829101562,26.701000213623047 -129.01699829101562,26.701000213623047 C-129.01699829101562,26.701000213623047 -130.56500244140625,26.701000213623047 -130.56500244140625,26.701000213623047 C-130.56500244140625,26.701000213623047 -131.84300231933594,45.66699981689453 -131.84300231933594,45.66699981689453 C-131.84300231933594,45.66699981689453 -150.67799377441406,45.66699981689453 -150.67799377441406,45.66699981689453 C-150.67799377441406,45.66699981689453 -151.9550018310547,26.701000213623047 -151.9550018310547,26.701000213623047 C-151.9550018310547,26.701000213623047 -153.5030059814453,26.701000213623047 -153.5030059814453,26.701000213623047 C-153.5030059814453,26.701000213623047 -153.5030059814453,24.283000946044922 -153.5030059814453,24.283000946044922 C-153.5030059814453,24.283000946044922 -129.01699829101562,24.283000946044922 -129.01699829101562,24.283000946044922z"></path></g><g opacity="1" transform="matrix(1,0,0,1,0,0)"><path fill="rgb(230,230,230)" fill-opacity="1" d=" M-135.21600341796875,-22.788999557495117 C-136.76400756835938,-34.08599853515625 -152.00999450683594,-37.31399917602539 -171.35800170898438,-37.72700119018555 C-189.7689971923828,-38.119998931884766 -195.66600036621094,-44.6349983215332 -195.66600036621094,-44.6349983215332 C-195.66600036621094,-44.6349983215332 -195.60800170898438,-18.256000518798828 -169.07899475097656,-8.704999923706055 C-143.88800048828125,0.36399999260902405 -133.6649932861328,-11.472000122070312 -135.21600341796875,-22.788999557495117z"></path></g><g opacity="1" transform="matrix(1,0,0,1,0,0)"><path fill="rgb(230,230,230)" fill-opacity="1" d=" M-144.62100219726562,2.8239998817443848 C-144.29800415039062,-1.8229999542236328 -136.87899780273438,-10.362000465393066 -119.03399658203125,-6.480000019073486 C-106.12999725341797,-3.6730000972747803 -101.33300018310547,-10.362000465393066 -101.33300018310547,-10.362000465393066 C-101.33300018310547,-10.362000465393066 -102.52799987792969,8.517000198364258 -121.93399810791016,14.192999839782715 C-140.36099243164062,19.58300018310547 -145.18899536132812,10.994999885559082 -144.62100219726562,2.8239998817443848z"></path></g><g opacity="1" transform="matrix(1,0,0,1,0,0)"><path fill="rgb(230,230,230)" fill-opacity="1" d=" M-140.5500030517578,31.40399932861328 C-140.35499572753906,31.40399932861328 -140.16000366210938,31.320999145507812 -140.0240020751953,31.15999984741211 C-138.72999572753906,29.631000518798828 -139.78799438476562,25.969999313354492 -141.2530059814453,20.902000427246094 C-143.13299560546875,14.39900016784668 -145.4720001220703,6.303999900817871 -143.49099731445312,0.4269999861717224 C-142.3730010986328,-2.8910000324249268 -140.99000549316406,-5.816999912261963 -139.65199279785156,-8.645999908447266 C-136.8509979248047,-14.569999694824219 -134.4320068359375,-19.684999465942383 -136.44900512695312,-25.027999877929688 C-136.58299255371094,-25.384000778198242 -136.97999572753906,-25.562999725341797 -137.33599853515625,-25.429000854492188 C-137.6909942626953,-25.295000076293945 -137.87100219726562,-24.89699935913086 -137.73699951171875,-24.54199981689453 C-135.92599487304688,-19.746000289916992 -138.11900329589844,-15.107000350952148 -140.89599609375,-9.234000205993652 C-142.18800354003906,-6.502999782562256 -143.6510009765625,-3.4070000648498535 -144.7949981689453,-0.013000000268220901 C-146.91400146484375,6.2729997634887695 -144.50900268554688,14.595999717712402 -142.5760040283203,21.284000396728516 C-141.43600463867188,25.22800064086914 -140.25799560546875,29.30500030517578 -141.0749969482422,30.270999908447266 C-141.32000732421875,30.56100082397461 -141.28399658203125,30.996000289916992 -140.99400329589844,31.240999221801758 C-140.86500549316406,31.350000381469727 -140.70700073242188,31.40399932861328 -140.5500030517578,31.40399932861328z"></path></g></g></g><g opacity="1" transform="matrix(1,0,0,1,0,0)"><g opacity="1" transform="matrix(1,0,0,1,0,0)"><path fill="rgb(64,123,255)" fill-opacity="1" d=" M151.8459930419922,-75.68099975585938 C145.0540008544922,-21.46500015258789 97.5479965209961,32.667999267578125 45.3129997253418,67.53299713134766 C-89.72799682617188,158.34800720214844 -220.1999969482422,4.24399995803833 -187.2779998779297,-51.10499954223633 C-162.56500244140625,-107.2490005493164 -85.49299621582031,-91.82599639892578 -52.70500183105469,-113.89700317382812 C131.58599853515625,-238.82000732421875 158.24000549316406,-121.05500030517578 151.8459930419922,-75.68099975585938z"></path></g><g opacity="0.9" transform="matrix(1,0,0,1,0,0)"><path fill="rgb(255,255,255)" fill-opacity="1" d=" M151.8459930419922,-75.68099975585938 C145.0540008544922,-21.46500015258789 97.5479965209961,32.667999267578125 45.3129997253418,67.53299713134766 C-89.72799682617188,158.34800720214844 -220.1999969482422,4.24399995803833 -187.2779998779297,-51.10499954223633 C-162.56500244140625,-107.2490005493164 -85.49299621582031,-91.82599639892578 -52.70500183105469,-113.89700317382812 C131.58599853515625,-238.82000732421875 158.24000549316406,-121.05500030517578 151.8459930419922,-75.68099975585938z"></path></g></g><g opacity="1" transform="matrix(1,0,0,1,0,0)"><path fill="rgb(245,245,245)" fill-opacity="1" d=" M193.88900756835938,166.23800659179688 C193.88900756835938,172.49200439453125 107.08200073242188,177.56100463867188 0,177.56100463867188 C-107.08200073242188,177.56100463867188 -193.88900756835938,172.49200439453125 -193.88900756835938,166.23800659179688 C-193.88900756835938,159.98500061035156 -107.08200073242188,154.9149932861328 0,154.9149932861328 C107.08200073242188,154.9149932861328 193.88900756835938,159.98500061035156 193.88900756835938,166.23800659179688z"></path></g></g><g transform="matrix(1,0,0,1,225.07400512695312,296.1417236328125)" opacity="1" style="display: block;"><g opacity="1" transform="matrix(1,0,0,1,0,0)"><path fill="rgb(64,123,255)" fill-opacity="1" d=" M74.88600158691406,114.18399810791016 C74.88600158691406,114.18399810791016 -67.11399841308594,114.18399810791016 -67.11399841308594,114.18399810791016 C-67.11399841308594,114.18399810791016 -74.88600158691406,-114.18399810791016 -74.88600158691406,-114.18399810791016 C-74.88600158691406,-114.18399810791016 67.11399841308594,-114.18399810791016 67.11399841308594,-114.18399810791016 C67.11399841308594,-114.18399810791016 74.88600158691406,114.18399810791016 74.88600158691406,114.18399810791016z"></path></g></g><g transform="matrix(1,0,0,1,0,-0.723297119140625)" opacity="1" style="display: block;"><g opacity="1" transform="matrix(1,0,0,1,232.16099548339844,289.77801513671875)"><path fill="rgb(64,123,255)" fill-opacity="1" d=" M74.88600158691406,114.18399810791016 C74.88600158691406,114.18399810791016 -67.11399841308594,114.18399810791016 -67.11399841308594,114.18399810791016 C-67.11399841308594,114.18399810791016 -74.88600158691406,-114.18399810791016 -74.88600158691406,-114.18399810791016 C-74.88600158691406,-114.18399810791016 67.11399841308594,-114.18399810791016 67.11399841308594,-114.18399810791016 C67.11399841308594,-114.18399810791016 74.88600158691406,114.18399810791016 74.88600158691406,114.18399810791016z"></path></g><g opacity="0.3" transform="matrix(1,0,0,1,232.16099548339844,289.77801513671875)"><path fill="rgb(255,255,255)" fill-opacity="1" d=" M74.88600158691406,114.18399810791016 C74.88600158691406,114.18399810791016 -67.11399841308594,114.18399810791016 -67.11399841308594,114.18399810791016 C-67.11399841308594,114.18399810791016 -74.88600158691406,-114.18399810791016 -74.88600158691406,-114.18399810791016 C-74.88600158691406,-114.18399810791016 67.11399841308594,-114.18399810791016 67.11399841308594,-114.18399810791016 C67.11399841308594,-114.18399810791016 74.88600158691406,114.18399810791016 74.88600158691406,114.18399810791016z"></path></g></g><g transform="matrix(1,0,0,1,0,-0.7222900390625)" opacity="1" style="display: block;"><g opacity="1" transform="matrix(1,0,0,1,230.5030059814453,241.09300231933594)"><path fill="rgb(64,123,255)" fill-opacity="1" d=" M39.94300079345703,0 C40.694000244140625,22.059999465942383 23.420000076293945,39.94300079345703 1.3600000143051147,39.94300079345703 C-20.700000762939453,39.94300079345703 -39.19200134277344,22.059999465942383 -39.94300079345703,0 C-40.694000244140625,-22.059999465942383 -23.41900062561035,-39.94300079345703 -1.3589999675750732,-39.94300079345703 C20.701000213623047,-39.94300079345703 39.19200134277344,-22.059999465942383 39.94300079345703,0z"></path></g><g opacity="1" transform="matrix(1,0,0,1,230.5030059814453,241.08900451660156)"><path fill="rgb(255,255,255)" fill-opacity="1" d=" M32.965999603271484,0 C33.15999984741211,5.692999839782715 31.898000717163086,11.038000106811523 29.517000198364258,15.70300006866455 C24.305999755859375,25.97800064086914 13.654000282287598,32.965999603271484 1.121999979019165,32.965999603271484 C-11.40999984741211,32.965999603271484 -22.53700065612793,25.97800064086914 -28.447999954223633,15.70300006866455 C-31.145999908447266,11.038000106811523 -32.77199935913086,5.692999839782715 -32.965999603271484,0 C-33.58599853515625,-18.209999084472656 -19.33099937438965,-32.965999603271484 -1.121999979019165,-32.965999603271484 C17.086999893188477,-32.965999603271484 32.34600067138672,-18.209999084472656 32.965999603271484,0z"></path></g><g opacity="0.6" transform="matrix(1,0,0,1,231.03700256347656,261.0329895019531)"><path fill="rgb(64,123,255)" fill-opacity="1" d=" M28.98200035095215,-4.241000175476074 C23.770999908447266,6.033999919891357 13.119999885559082,13.022000312805176 0.5879999995231628,13.022000312805176 C-11.944000244140625,13.022000312805176 -23.070999145507812,6.033999919891357 -28.98200035095215,-4.241000175476074 C-20.871000289916992,-9.78499984741211 -11.022000312805176,-13.022000312805176 -0.29899999499320984,-13.022000312805176 C10.423999786376953,-13.022000312805176 20.493999481201172,-9.78499984741211 28.98200035095215,-4.241000175476074z"></path></g><g opacity="0.6" transform="matrix(1,0,0,1,230.11900329589844,229.81100463867188)"><path fill="rgb(64,123,255)" fill-opacity="1" d=" M14.684000015258789,0 C14.960000038146973,8.109999656677246 8.609999656677246,14.684000015258789 0.5,14.684000015258789 C-7.610000133514404,14.684000015258789 -14.407999992370605,8.109999656677246 -14.684000015258789,0 C-14.960000038146973,-8.109999656677246 -8.609999656677246,-14.684000015258789 -0.5,-14.684000015258789 C7.610000133514404,-14.684000015258789 14.407999992370605,-8.109999656677246 14.684000015258789,0z"></path></g></g><g transform="matrix(1,0,0,1,232.92599487304688,311.5377197265625)" opacity="1" style="display: block;"><g opacity="1" transform="matrix(1,0,0,1,0,0)"><path fill="rgb(255,255,255)" fill-opacity="1" d=" M45.5989990234375,9 C45.5989990234375,9 -44.986000061035156,9 -44.986000061035156,9 C-44.986000061035156,9 -45.5989990234375,-9 -45.5989990234375,-9 C-45.5989990234375,-9 44.986000061035156,-9 44.986000061035156,-9 C44.986000061035156,-9 45.5989990234375,9 45.5989990234375,9z"></path></g></g><g transform="matrix(1,0,0,1,234.02099609375,343.7117004394531)" opacity="1" style="display: block;"><g opacity="1" transform="matrix(1,0,0,1,0,0)"><path fill="rgb(255,255,255)" fill-opacity="1" d=" M45.5989990234375,9 C45.5989990234375,9 -44.986000061035156,9 -44.986000061035156,9 C-44.986000061035156,9 -45.5989990234375,-9 -45.5989990234375,-9 C-45.5989990234375,-9 44.986000061035156,-9 44.986000061035156,-9 C44.986000061035156,-9 45.5989990234375,9 45.5989990234375,9z"></path></g></g><g transform="matrix(1,0,0,1,233.0399932861328,331.5897216796875)" opacity="1" style="display: block;"><g opacity="0.0000022696768789387533" transform="matrix(1,0,0,1,0,0)"><path stroke-linecap="round" stroke-linejoin="miter" fill-opacity="0" stroke-miterlimit="4" stroke="rgb(63,122,255)" stroke-opacity="1" stroke-width="3" d=" M-10.430999755859375,-1.2109999656677246 C-9.829000473022461,-6.436999797821045 -5.385000228881836,-10.5 0,-10.5 C0,-10.5 0,-10.5 0,-10.5 C5.794950008392334,-10.5 10.5,-5.794950008392334 10.5,0 C10.5,5.538000106811523 6.203000068664551,10.079999923706055 0.7649999856948853,10.472999572753906"></path></g></g><g transform="matrix(1,0,0,1,234.98599243164062,372.0577087402344)" opacity="1" style="display: block;"><g opacity="1" transform="matrix(1,0,0,1,0,0)"><path fill="rgb(64,123,255)" fill-opacity="1" d=" M29.680999755859375,5.857999801635742 C29.680999755859375,5.857999801635742 -29.281999588012695,5.857999801635742 -29.281999588012695,5.857999801635742 C-29.281999588012695,5.857999801635742 -29.680999755859375,-5.857999801635742 -29.680999755859375,-5.857999801635742 C-29.680999755859375,-5.857999801635742 29.281999588012695,-5.857999801635742 29.281999588012695,-5.857999801635742 C29.281999588012695,-5.857999801635742 29.680999755859375,5.857999801635742 29.680999755859375,5.857999801635742z"></path></g></g><g transform="matrix(1,0,0,1,300,299.2767028808594)" opacity="1" style="display: block;"><g opacity="0" transform="matrix(1,0,0,1,0,0)"><path fill="rgb(63,122,255)" fill-opacity="1" d=" M-103,39.5 C-100.51644897460938,39.5 -98.5,41.516448974609375 -98.5,44 C-98.5,46.483551025390625 -100.51644897460938,48.5 -103,48.5 C-105.48355102539062,48.5 -107.5,46.483551025390625 -107.5,44 C-107.5,41.516448974609375 -105.48355102539062,39.5 -103,39.5z"></path></g><g opacity="0" transform="matrix(1,0,0,1,0,0)"><path fill="rgb(63,122,255)" fill-opacity="1" d=" M-88,39.5 C-85.51644897460938,39.5 -83.5,41.516448974609375 -83.5,44 C-83.5,46.483551025390625 -85.51644897460938,48.5 -88,48.5 C-90.48355102539062,48.5 -92.5,46.483551025390625 -92.5,44 C-92.5,41.516448974609375 -90.48355102539062,39.5 -88,39.5z"></path></g><g opacity="0" transform="matrix(1,0,0,1,0,0)"><path fill="rgb(63,122,255)" fill-opacity="1" d=" M-73,39.5 C-70.51644897460938,39.5 -68.5,41.516448974609375 -68.5,44 C-68.5,46.483551025390625 -70.51644897460938,48.5 -73,48.5 C-75.48355102539062,48.5 -77.5,46.483551025390625 -77.5,44 C-77.5,41.516448974609375 -75.48355102539062,39.5 -73,39.5z"></path></g><g opacity="0" transform="matrix(1,0,0,1,0,0)"><path fill="rgb(63,122,255)" fill-opacity="1" d=" M-58,39.5 C-55.516448974609375,39.5 -53.5,41.516448974609375 -53.5,44 C-53.5,46.483551025390625 -55.516448974609375,48.5 -58,48.5 C-60.483551025390625,48.5 -62.5,46.483551025390625 -62.5,44 C-62.5,41.516448974609375 -60.483551025390625,39.5 -58,39.5z"></path></g><g opacity="0" transform="matrix(1,0,0,1,0,0)"><path fill="rgb(63,122,255)" fill-opacity="1" d=" M-43,39.5 C-40.516448974609375,39.5 -38.5,41.516448974609375 -38.5,44 C-38.5,46.483551025390625 -40.516448974609375,48.5 -43,48.5 C-45.483551025390625,48.5 -47.5,46.483551025390625 -47.5,44 C-47.5,41.516448974609375 -45.483551025390625,39.5 -43,39.5z"></path></g><g opacity="0" transform="matrix(1,0,0,1,0,0)"><path fill="rgb(63,122,255)" fill-opacity="1" d=" M-28,39.5 C-25.516450881958008,39.5 -23.5,41.516448974609375 -23.5,44 C-23.5,46.483551025390625 -25.516450881958008,48.5 -28,48.5 C-30.483549118041992,48.5 -32.5,46.483551025390625 -32.5,44 C-32.5,41.516448974609375 -30.483549118041992,39.5 -28,39.5z"></path></g></g><g transform="matrix(1,0,0,1,232,316.07672119140625)" opacity="1" fill="rgb(64,123,255)" font-size="13.1999998092651" font-family="Soin Sans Neue" font-style="normal" font-weight="700" aria-label="USERNAME" style="display: block;"><g stroke-linecap="butt" stroke-linejoin="round" stroke-miterlimit="4" transform="matrix(1,0,0,1,-38.38560104370117,0)" opacity="1" style="display: inherit;"><g><g transform="matrix(1,0,0,1,0,0)" opacity="1" style="display: block;"><path d=" M4.96,0.16 C7.22,0.16 9,-1.14 9,-3.8 C9,-3.8 9,-9.31 9,-9.31 C9,-9.31 7.17,-9.31 7.17,-9.31 C7.17,-9.31 7.17,-4.01 7.17,-4.01 C7.17,-2.29 6.31,-1.54 4.97,-1.54 C3.63,-1.54 2.78,-2.29 2.78,-4.01 C2.78,-4.01 2.78,-9.31 2.78,-9.31 C2.78,-9.31 0.92,-9.31 0.92,-9.31 C0.92,-9.31 0.92,-3.8 0.92,-3.8 C0.92,-1.14 2.7,0.16 4.96,0.16z"></path><g opacity="1" transform="matrix(0.13199999928474426,0,0,0.13199999928474426,0,0)"></g></g></g></g><g stroke-linecap="butt" stroke-linejoin="round" stroke-miterlimit="4" transform="matrix(1,0,0,1,-28.538400650024414,0)" opacity="1" style="display: inherit;"><g><g transform="matrix(1,0,0,1,0,0)" opacity="1" style="display: block;"><path d=" M4.31,-1.48 C3.11,-1.48 2.41,-1.89 2.31,-2.62 C2.31,-2.62 0.52,-2.62 0.52,-2.62 C0.66,-0.89 2.06,0.15 4.29,0.15 C6.46,0.15 7.92,-0.82 7.92,-2.73 C7.92,-4.11 7.15,-4.97 5.26,-5.34 C5.26,-5.34 4.21,-5.56 4.21,-5.56 C3.07,-5.77 2.54,-6.06 2.54,-6.74 C2.54,-7.46 3.15,-7.83 4.15,-7.83 C5.1,-7.83 5.74,-7.47 5.86,-6.83 C5.86,-6.83 7.64,-6.83 7.64,-6.83 C7.48,-8.4 6.27,-9.45 4.13,-9.45 C1.93,-9.45 0.69,-8.39 0.69,-6.74 C0.69,-5.32 1.57,-4.4 3.48,-4.03 C3.48,-4.03 4.52,-3.82 4.52,-3.82 C5.65,-3.6 6.06,-3.23 6.06,-2.62 C6.06,-1.9 5.38,-1.48 4.31,-1.48z"></path><g opacity="1" transform="matrix(0.13199999928474426,0,0,0.13199999928474426,0,0)"></g></g></g></g><g stroke-linecap="butt" stroke-linejoin="round" stroke-miterlimit="4" transform="matrix(1,0,0,1,-20.222400665283203,0)" opacity="0" style="display: inherit;"><g><g transform="matrix(1,0,0,1,0,0)" opacity="1" style="display: block;"><path d=" M7.87,0 C7.87,0 7.87,-1.65 7.87,-1.65 C7.87,-1.65 2.8,-1.65 2.8,-1.65 C2.8,-1.65 2.8,-3.86 2.8,-3.86 C2.8,-3.86 7.47,-3.86 7.47,-3.86 C7.47,-3.86 7.47,-5.5 7.47,-5.5 C7.47,-5.5 2.8,-5.5 2.8,-5.5 C2.8,-5.5 2.8,-7.66 2.8,-7.66 C2.8,-7.66 7.8,-7.66 7.8,-7.66 C7.8,-7.66 7.8,-9.31 7.8,-9.31 C7.8,-9.31 0.96,-9.31 0.96,-9.31 C0.96,-9.31 0.96,0 0.96,0 C0.96,0 7.87,0 7.87,0z"></path><g opacity="1" transform="matrix(0.13199999928474426,0,0,0.13199999928474426,0,0)"></g></g></g></g><g stroke-linecap="butt" stroke-linejoin="round" stroke-miterlimit="4" transform="matrix(1,0,0,1,-11.708399772644043,0)" opacity="0" style="display: inherit;"><g><g transform="matrix(1,0,0,1,0,0)" opacity="1" style="display: block;"><path d=" M2.8,-4.76 C2.8,-4.76 2.8,-7.67 2.8,-7.67 C2.8,-7.67 4.97,-7.67 4.97,-7.67 C6.18,-7.67 6.82,-7.14 6.82,-6.22 C6.82,-5.28 6.18,-4.76 4.97,-4.76 C4.97,-4.76 2.8,-4.76 2.8,-4.76z M2.8,-3.12 C2.8,-3.12 4.27,-3.12 4.27,-3.12 C4.27,-3.12 6.67,0 6.67,0 C6.67,0 8.75,0 8.75,0 C8.75,0 6.23,-3.26 6.23,-3.26 C7.83,-3.63 8.69,-4.76 8.69,-6.22 C8.69,-8.03 7.47,-9.31 5.14,-9.31 C5.14,-9.31 0.96,-9.31 0.96,-9.31 C0.96,-9.31 0.96,0 0.96,0 C0.96,0 2.8,0 2.8,0 C2.8,0 2.8,-3.12 2.8,-3.12z"></path><g opacity="1" transform="matrix(0.13199999928474426,0,0,0.13199999928474426,0,0)"></g></g></g></g><g stroke-linecap="butt" stroke-linejoin="round" stroke-miterlimit="4" transform="matrix(1,0,0,1,-2.4288012981414795,0)" opacity="0" style="display: inherit;"><g><g transform="matrix(1,0,0,1,0,0)" opacity="1" style="display: block;"><path d=" M0.96,-9.32 C0.96,-9.32 0.96,0 0.96,0 C0.96,0 2.78,0 2.78,0 C2.78,0 2.78,-6.39 2.78,-6.39 C2.78,-6.39 7.55,0.01 7.55,0.01 C7.55,0.01 9.28,0.01 9.28,0.01 C9.28,0.01 9.28,-9.31 9.28,-9.31 C9.28,-9.31 7.47,-9.31 7.47,-9.31 C7.47,-9.31 7.47,-2.91 7.47,-2.91 C7.47,-2.91 2.69,-9.32 2.69,-9.32 C2.69,-9.32 0.96,-9.32 0.96,-9.32z"></path><g opacity="1" transform="matrix(0.13199999928474426,0,0,0.13199999928474426,0,0)"></g></g></g></g><g stroke-linecap="butt" stroke-linejoin="round" stroke-miterlimit="4" transform="matrix(1,0,0,1,7.748398780822754,0)" opacity="0" style="display: inherit;"><g><g transform="matrix(1,0,0,1,0,0)" opacity="1" style="display: block;"><path d=" M5.04,-7.3 C5.04,-7.3 6.47,-3.76 6.47,-3.76 C6.47,-3.76 3.59,-3.76 3.59,-3.76 C3.59,-3.76 5.04,-7.3 5.04,-7.3z M8.02,0 C8.02,0 9.92,0 9.92,0 C9.92,0 5.93,-9.32 5.93,-9.32 C5.93,-9.32 4.17,-9.32 4.17,-9.32 C4.17,-9.32 0.17,0 0.17,0 C0.17,0 2.06,0 2.06,0 C2.06,0 2.91,-2.09 2.91,-2.09 C2.91,-2.09 7.17,-2.09 7.17,-2.09 C7.17,-2.09 8.02,0 8.02,0z"></path><g opacity="1" transform="matrix(0.13199999928474426,0,0,0.13199999928474426,0,0)"></g></g></g></g><g stroke-linecap="butt" stroke-linejoin="round" stroke-miterlimit="4" transform="matrix(1,0,0,1,17.740800857543945,0)" opacity="0" style="display: inherit;"><g><g transform="matrix(1,0,0,1,0,0)" opacity="1" style="display: block;"><path d=" M5.42,-1.66 C5.42,-1.66 6.79,-1.66 6.79,-1.66 C6.79,-1.66 9.41,-6.22 9.41,-6.22 C9.41,-6.22 9.41,0 9.41,0 C9.41,0 11.25,0 11.25,0 C11.25,0 11.25,-9.32 11.25,-9.32 C11.25,-9.32 9.48,-9.32 9.48,-9.32 C9.48,-9.32 6.13,-3.56 6.13,-3.56 C6.13,-3.56 2.77,-9.32 2.77,-9.32 C2.77,-9.32 0.96,-9.32 0.96,-9.32 C0.96,-9.32 0.96,0 0.96,0 C0.96,0 2.78,0 2.78,0 C2.78,0 2.78,-6.26 2.78,-6.26 C2.78,-6.26 5.42,-1.66 5.42,-1.66z"></path><g opacity="1" transform="matrix(0.13199999928474426,0,0,0.13199999928474426,0,0)"></g></g></g></g><g stroke-linecap="butt" stroke-linejoin="round" stroke-miterlimit="4" transform="matrix(1,0,0,1,29.871599197387695,0)" opacity="0" style="display: inherit;"><g><g transform="matrix(1,0,0,1,0,0)" opacity="1" style="display: block;"><path d=" M7.87,0 C7.87,0 7.87,-1.65 7.87,-1.65 C7.87,-1.65 2.8,-1.65 2.8,-1.65 C2.8,-1.65 2.8,-3.86 2.8,-3.86 C2.8,-3.86 7.47,-3.86 7.47,-3.86 C7.47,-3.86 7.47,-5.5 7.47,-5.5 C7.47,-5.5 2.8,-5.5 2.8,-5.5 C2.8,-5.5 2.8,-7.66 2.8,-7.66 C2.8,-7.66 7.8,-7.66 7.8,-7.66 C7.8,-7.66 7.8,-9.31 7.8,-9.31 C7.8,-9.31 0.96,-9.31 0.96,-9.31 C0.96,-9.31 0.96,0 0.96,0 C0.96,0 7.87,0 7.87,0z"></path><g opacity="1" transform="matrix(0.13199999928474426,0,0,0.13199999928474426,0,0)"></g></g></g></g></g><g transform="matrix(1,0,0,1,300,300)" opacity="1" style="display: block;"><g opacity="0.3" transform="matrix(1,0,0,1,0,0)"><path fill="rgb(64,123,255)" fill-opacity="1" d=" M88.49800109863281,-127.18199920654297 C88.49800109863281,-125.46800231933594 86.31800079345703,-124.0790023803711 83.62899780273438,-124.0790023803711 C80.94000244140625,-124.0790023803711 78.76000213623047,-125.46800231933594 78.76000213623047,-127.18199920654297 C78.76000213623047,-128.89599609375 80.94000244140625,-130.28599548339844 83.62899780273438,-130.28599548339844 C86.31800079345703,-130.28599548339844 88.49800109863281,-128.89599609375 88.49800109863281,-127.18199920654297z"></path></g><g opacity="0.6" transform="matrix(1,0,0,1,0,0)"><path fill="rgb(64,123,255)" fill-opacity="1" d=" M114.35600280761719,-134.74200439453125 C114.35600280761719,-130.56700134277344 109.0459976196289,-127.18199920654297 102.49500274658203,-127.18199920654297 C95.94400024414062,-127.18199920654297 90.63400268554688,-130.56700134277344 90.63400268554688,-134.74200439453125 C90.63400268554688,-138.91700744628906 95.94400024414062,-142.302001953125 102.49500274658203,-142.302001953125 C109.0459976196289,-142.302001953125 114.35600280761719,-138.91700744628906 114.35600280761719,-134.74200439453125z"></path></g><g opacity="1" transform="matrix(1,0,0,1,0,0)"><path fill="rgb(64,123,255)" fill-opacity="1" d=" M167.96200561523438,-163.66700744628906 C167.96200561523438,-150.96400451660156 151.8040008544922,-140.66700744628906 131.87399291992188,-140.66700744628906 C111.94400024414062,-140.66700744628906 95.78800201416016,-150.96400451660156 95.78800201416016,-163.66700744628906 C95.78800201416016,-176.36900329589844 111.94400024414062,-186.66700744628906 131.87399291992188,-186.66700744628906 C151.8040008544922,-186.66700744628906 167.96200561523438,-176.36900329589844 167.96200561523438,-163.66700744628906z"></path></g><g opacity="1" transform="matrix(0.9808430075645447,-0.19479994475841522,0.19479994475841522,0.9808430075645447,34.19329071044922,22.697982788085938)"><path fill="rgb(255,255,255)" fill-opacity="1" d=" M118.84600067138672,-152.08999633789062 C116.84100341796875,-152.08999633789062 114.88400268554688,-152.69000244140625 113.18399810791016,-153.8489990234375 C110.90399932861328,-155.4029998779297 109.38899993896484,-157.75900268554688 108.91799926757812,-160.48300170898438 C108.0199966430664,-165.69000244140625 111.47699737548828,-170.8780059814453 116.62699890136719,-172.04800415039062 C116.62699890136719,-172.04800415039062 116.62699890136719,-172.04800415039062 116.62699890136719,-172.04800415039062 C120.86699676513672,-173.00900268554688 125.1729965209961,-171.20199584960938 127.44999694824219,-167.53199768066406 C127.44999694824219,-167.53199768066406 150.61700439453125,-172.31300354003906 150.61700439453125,-172.31300354003906 C152.49400329589844,-172.6999969482422 154.4010009765625,-171.58099365234375 154.86300659179688,-169.8159942626953 C155.10800170898438,-168.8769989013672 154.96299743652344,-167.90899658203125 154.4530029296875,-167.08799743652344 C153.94200134277344,-166.26600646972656 153.13999938964844,-165.70599365234375 152.1929931640625,-165.51100158691406 C152.1929931640625,-165.51100158691406 151.5850067138672,-165.38499450683594 151.5850067138672,-165.38499450683594 C151.4029998779297,-165.34800720214844 151.2550048828125,-165.23899841308594 151.16700744628906,-165.07699584960938 C151.07899475097656,-164.91700744628906 151.06700134277344,-164.72799682617188 151.1320037841797,-164.55799865722656 C151.1320037841797,-164.55799865722656 151.5399932861328,-163.49600219726562 151.5399932861328,-163.49600219726562 C151.81700134277344,-162.77699279785156 151.5590057373047,-161.96800231933594 150.9239959716797,-161.572998046875 C150.42999267578125,-161.26499938964844 150.09300231933594,-160.73699951171875 150.0260009765625,-160.15899658203125 C149.94400024414062,-159.4510040283203 149.4709930419922,-158.90499877929688 148.82200622558594,-158.77099609375 C148.82200622558594,-158.77099609375 148.3459930419922,-158.67300415039062 148.3459930419922,-158.67300415039062 C147.697998046875,-158.54100036621094 147.04800415039062,-158.8509979248047 146.6909942626953,-159.468994140625 C146.2729949951172,-160.1909942626953 145.4429931640625,-160.56300354003906 144.6230010986328,-160.3939971923828 C143.8000030517578,-160.2239990234375 143.18099975585938,-159.55299377441406 143.08099365234375,-158.7239990234375 C142.99600219726562,-158.01499938964844 142.5229949951172,-157.4709930419922 141.87600708007812,-157.33799743652344 C141.87600708007812,-157.33799743652344 141.40899658203125,-157.24200439453125 141.40899658203125,-157.24200439453125 C140.76800537109375,-157.10899353027344 140.11199951171875,-157.42100524902344 139.7550048828125,-158.03799438476562 C139.46200561523438,-158.54200744628906 138.94200134277344,-158.8939971923828 138.36300659179688,-158.97999572753906 C137.62399291992188,-159.08999633789062 137.06500244140625,-159.72999572753906 137.03399658203125,-160.5019989013672 C137.03399658203125,-160.5019989013672 136.98800659179688,-161.63900756835938 136.98800659179688,-161.63900756835938 C136.9810028076172,-161.822998046875 136.89700317382812,-161.98800659179688 136.7519989013672,-162.1009979248047 C136.60699462890625,-162.21499633789062 136.43299865722656,-162.2570037841797 136.2449951171875,-162.22000122070312 C136.2449951171875,-162.22000122070312 128.86300659179688,-160.6959991455078 128.86300659179688,-160.6959991455078 C128.23699951171875,-156.51300048828125 125.08399963378906,-153.16400146484375 120.91200256347656,-152.30299377441406 C120.2229995727539,-152.16099548339844 119.53199768066406,-152.08999633789062 118.84600067138672,-152.08999633789062z M116.8479995727539,-171.072998046875 C112.20899963378906,-170.0189971923828 109.09300231933594,-165.343994140625 109.90399932861328,-160.6529998779297 C110.3270034790039,-158.197998046875 111.69200134277344,-156.0749969482422 113.74700164794922,-154.6750030517578 C115.802001953125,-153.27499389648438 118.2750015258789,-152.7790069580078 120.71099853515625,-153.28199768066406 C124.57599639892578,-154.0800018310547 127.4729995727539,-157.25 127.91699981689453,-161.1699981689453 C127.91699981689453,-161.1699981689453 127.95800018310547,-161.52999877929688 127.95800018310547,-161.52999877929688 C127.95800018310547,-161.52999877929688 136.04299926757812,-163.19900512695312 136.04299926757812,-163.19900512695312 C136.50999450683594,-163.29600524902344 136.9929962158203,-163.18299865722656 137.3679962158203,-162.88900756835938 C137.7429962158203,-162.5959930419922 137.96800231933594,-162.15499877929688 137.98800659179688,-161.6790008544922 C137.98800659179688,-161.6790008544922 138.03399658203125,-160.54200744628906 138.03399658203125,-160.54200744628906 C138.0449981689453,-160.25399780273438 138.25,-160.00799560546875 138.50999450683594,-159.968994140625 C139.4010009765625,-159.83599853515625 140.16900634765625,-159.3159942626953 140.6199951171875,-158.5399932861328 C140.72999572753906,-158.35000610351562 140.94000244140625,-158.16600036621094 141.20799255371094,-158.2209930419922 C141.20799255371094,-158.2209930419922 141.6750030517578,-158.31700134277344 141.6750030517578,-158.31700134277344 C141.94000244140625,-158.3719940185547 142.06300354003906,-158.625 142.08900451660156,-158.84300231933594 C142.23800659179688,-160.0989990234375 143.17599487304688,-161.11599731445312 144.4219970703125,-161.3730010986328 C145.66400146484375,-161.62899780273438 146.92300415039062,-161.06500244140625 147.5570068359375,-159.9709930419922 C147.66700744628906,-159.781005859375 147.875,-159.5959930419922 148.1439971923828,-159.6529998779297 C148.1439971923828,-159.6529998779297 148.62100219726562,-159.75100708007812 148.62100219726562,-159.75100708007812 C148.88600158691406,-159.80599975585938 149.00799560546875,-160.0570068359375 149.03199768066406,-160.2740020751953 C149.13699340820312,-161.16600036621094 149.63299560546875,-161.947998046875 150.39599609375,-162.4219970703125 C150.6199951171875,-162.56100463867188 150.7100067138672,-162.8679962158203 150.6060028076172,-163.13600158691406 C150.6060028076172,-163.13600158691406 150.197998046875,-164.19900512695312 150.197998046875,-164.19900512695312 C150.02699279785156,-164.6439971923828 150.05999755859375,-165.13900756835938 150.28900146484375,-165.5570068359375 C150.51800537109375,-165.9739990234375 150.91600036621094,-166.2689971923828 151.38299560546875,-166.36500549316406 C151.38299560546875,-166.36500549316406 151.99099731445312,-166.49099731445312 151.99099731445312,-166.49099731445312 C152.66700744628906,-166.6300048828125 153.24000549316406,-167.0290069580078 153.60400390625,-167.61500549316406 C153.96800231933594,-168.2010040283203 154.0709991455078,-168.8939971923828 153.89599609375,-169.56399536132812 C153.5659942626953,-170.82200622558594 152.18299865722656,-171.61700439453125 150.8179931640625,-171.33299255371094 C150.8179931640625,-171.33299255371094 126.9489974975586,-166.40699768066406 126.9489974975586,-166.40699768066406 C126.9489974975586,-166.40699768066406 126.7699966430664,-166.7220001220703 126.7699966430664,-166.7220001220703 C124.76799774169922,-170.2169952392578 120.78600311279297,-171.96800231933594 116.8479995727539,-171.072998046875 C116.8479995727539,-171.072998046875 116.8479995727539,-171.072998046875 116.8479995727539,-171.072998046875z M118.85900115966797,-155.78700256347656 C117.62100219726562,-155.78700256347656 116.41100311279297,-156.14700317382812 115.35199737548828,-156.84300231933594 C113.9219970703125,-157.78399658203125 112.94499969482422,-159.22300720214844 112.5999984741211,-160.8979949951172 C112.25299835205078,-162.5760040283203 112.58000183105469,-164.28799438476562 113.5199966430664,-165.71600341796875 C114.45999908447266,-167.14300537109375 115.9010009765625,-168.11900329589844 117.5770034790039,-168.46499633789062 C119.25499725341797,-168.81199645996094 120.96600341796875,-168.48500061035156 122.39399719238281,-167.54600524902344 C123.82099914550781,-166.60699462890625 124.7969970703125,-165.16600036621094 125.14299774169922,-163.48699951171875 C125.48999786376953,-161.81199645996094 125.16400146484375,-160.1020050048828 124.2249984741211,-158.6739959716797 C123.28600311279297,-157.24400329589844 121.84400177001953,-156.26600646972656 120.16500091552734,-155.9199981689453 C120.16500091552734,-155.9199981689453 120.16500091552734,-155.9199981689453 120.16500091552734,-155.9199981689453 C119.73100280761719,-155.8300018310547 119.29299926757812,-155.78700256347656 118.85900115966797,-155.78700256347656z M118.88899993896484,-167.60000610351562 C118.5199966430664,-167.60000610351562 118.14800262451172,-167.56100463867188 117.77799987792969,-167.48500061035156 C116.36399841308594,-167.1929931640625 115.14800262451172,-166.36900329589844 114.3550033569336,-165.1649932861328 C113.56199645996094,-163.9600067138672 113.28600311279297,-162.51800537109375 113.5780029296875,-161.1009979248047 C113.87000274658203,-159.68800354003906 114.69400024414062,-158.4720001220703 115.9010009765625,-157.67799377441406 C117.10700225830078,-156.88499450683594 118.5510025024414,-156.60800170898438 119.96399688720703,-156.89999389648438 C119.96399688720703,-156.89999389648438 119.96399688720703,-156.89999389648438 119.96399688720703,-156.89999389648438 C121.37999725341797,-157.19200134277344 122.59600067138672,-158.01800537109375 123.38899993896484,-159.2239990234375 C124.18099975585938,-160.4290008544922 124.45600128173828,-161.87100219726562 124.16400146484375,-163.28500366210938 C123.87100219726562,-164.70199584960938 123.0479965209961,-165.91900634765625 121.84400177001953,-166.71099853515625 C120.9540023803711,-167.29600524902344 119.93299865722656,-167.60000610351562 118.88899993896484,-167.60000610351562z"></path></g></g><g transform="matrix(0.9887726902961731,-0.14942750334739685,0.14942750334739685,0.9887726902961731,313.1089782714844,308.4714660644531)" opacity="1" style="display: block;"><g opacity="1" transform="matrix(1,0,0,1,0,0)"><path fill="rgb(38,50,56)" fill-opacity="1" d=" M51.1510009765625,-108.43599700927734 C51.03799819946289,-107.87999725341797 50.6510009765625,-107.48899841308594 50.28799819946289,-107.56300354003906 C49.92499923706055,-107.63700103759766 49.72200012207031,-108.14700317382812 49.834999084472656,-108.7030029296875 C49.948001861572266,-109.25900268554688 50.33399963378906,-109.6500015258789 50.696998596191406,-109.57599639892578 C51.060001373291016,-109.50199890136719 51.263999938964844,-108.99199676513672 51.1510009765625,-108.43599700927734z"></path></g><g opacity="1" transform="matrix(1,0,0,1,0,0)"><path fill="rgb(255,86,82)" fill-opacity="1" d=" M50.702999114990234,-107.47799682617188 C50.702999114990234,-107.47799682617188 48.7859992980957,-104.52799987792969 47.08000183105469,-103.26300048828125 C47.87699890136719,-102.1449966430664 49.6349983215332,-102.2249984741211 49.6349983215332,-102.2249984741211 C49.6349983215332,-102.2249984741211 50.702999114990234,-107.47799682617188 50.702999114990234,-107.47799682617188z"></path></g><g opacity="1" transform="matrix(1,0,0,1,0,0)"><path fill="rgb(38,50,56)" fill-opacity="1" d=" M53.81399917602539,-111.10900115966797 C53.89500045776367,-111.10900115966797 53.97600173950195,-111.13800048828125 54.040000915527344,-111.1969985961914 C54.17499923706055,-111.3219985961914 54.183998107910156,-111.53299713134766 54.058998107910156,-111.66799926757812 C52.80799865722656,-113.02200317382812 51.290000915527344,-112.78199768066406 51.2239990234375,-112.77100372314453 C51.042999267578125,-112.73999786376953 50.92100143432617,-112.56800079345703 50.95199966430664,-112.38700103759766 C50.983001708984375,-112.20600128173828 51.15599822998047,-112.08499908447266 51.33399963378906,-112.11399841308594 C51.33399963378906,-112.11399841308594 51.33399963378906,-112.11399841308594 51.33399963378906,-112.11399841308594 C51.38399887084961,-112.12200164794922 52.571998596191406,-112.2959976196289 53.56999969482422,-111.21600341796875 C53.63600158691406,-111.1449966430664 53.7239990234375,-111.10900115966797 53.81399917602539,-111.10900115966797z"></path></g><g opacity="1" transform="matrix(1,0,0,1,0,0)"><path fill="rgb(255,139,123)" fill-opacity="1" d=" M66.58999633789062,-98.31700134277344 C65.58100128173828,-93.1709976196289 64.9729995727539,-86.04199981689453 68.572998046875,-82.60800170898438 C68.572998046875,-82.60800170898438 67.16600036621094,-77.38800048828125 57.60499954223633,-77.38800048828125 C47.090999603271484,-77.38800048828125 52.547000885009766,-81.96900177001953 52.547000885009766,-81.96900177001953 C56.91699981689453,-83.32499694824219 56.87900161743164,-88.30400085449219 55.880001068115234,-92.302001953125 C55.880001068115234,-92.302001953125 66.58999633789062,-98.31700134277344 66.58999633789062,-98.31700134277344z"></path></g><g opacity="1" transform="matrix(1,0,0,1,0,0)"><path fill="rgb(255,139,123)" fill-opacity="1" d=" M69.93399810791016,-105.84500122070312 C68.12699890136719,-99.10199737548828 67.41200256347656,-95.06400299072266 63.250999450683594,-92.26000213623047 C56.992000579833984,-88.04299926757812 49.20000076293945,-92.88300323486328 48.95600128173828,-100.02999877929688 C48.73699951171875,-106.46299743652344 51.72800064086914,-116.40799713134766 58.9640007019043,-117.76699829101562 C66.09300231933594,-119.10600280761719 71.74099731445312,-112.58799743652344 69.93399810791016,-105.84500122070312z"></path></g><g opacity="1" transform="matrix(1,0,0,1,0,0)"><path fill="rgb(38,50,56)" fill-opacity="1" d=" M54.14699935913086,-105.58599853515625 C53.8129997253418,-106.48999786376953 52.255001068115234,-113.45800018310547 53.71799850463867,-115.26699829101562 C55.180999755859375,-117.07599639892578 71.8290023803711,-115.7750015258789 74.29100036621094,-113.35199737548828 C78.375,-109.33300018310547 75.54199981689453,-105.74600219726562 71.06999969482422,-101.11799621582031 C67.70700073242188,-97.63800048828125 67.5790023803711,-93.71600341796875 65.88300323486328,-93.13999938964844 C62.9109992980957,-92.13099670410156 58.30099868774414,-93.0790023803711 57.37699890136719,-96.25199890136719 C56.45199966430664,-99.42500305175781 54.14699935913086,-105.58599853515625 54.14699935913086,-105.58599853515625z"></path></g><g opacity="1" transform="matrix(1,0,0,1,0,0)"><path fill="rgb(38,50,56)" fill-opacity="1" d=" M72.27400207519531,-121.27799987792969 C66.38899993896484,-123.78299713134766 55.35599899291992,-121.01200103759766 49.39899826049805,-122.447998046875 C49.18600082397461,-119.36299896240234 51.04800033569336,-114.41600036621094 57.005001068115234,-113.08599853515625 C57.005001068115234,-113.08599853515625 65.46199798583984,-111.43699645996094 72.00499725341797,-111.7030029296875 C78.5469970703125,-111.96900177001953 77.27100372314453,-119.1500015258789 72.27400207519531,-121.27799987792969z"></path></g><g opacity="1" transform="matrix(1,0,0,1,0,0)"><path fill="rgb(38,50,56)" fill-opacity="1" d=" M73.19400024414062,-113.13899993896484 C73.19400024414062,-113.13899993896484 76.83399963378906,-112.72899627685547 79.41699981689453,-114.33300018310547 C80.52100372314453,-111.67400360107422 74.47200012207031,-110.94400024414062 73.19400024414062,-113.13899993896484z"></path></g><g opacity="1" transform="matrix(1,0,0,1,0,0)"><path fill="rgb(255,139,123)" fill-opacity="1" d=" M57.354000091552734,-105.30899810791016 C57.244998931884766,-103.48400115966797 56.39699935913086,-101.76699829101562 55.37799835205078,-100.64399719238281 C53.845001220703125,-98.95500183105469 52.244998931884766,-100.00599670410156 51.972999572753906,-102.06400299072266 C51.72800064086914,-103.91600036621094 52.23099899291992,-107.0260009765625 54.10599899291992,-107.95800018310547 C55.952999114990234,-108.8759994506836 57.479000091552734,-107.39600372314453 57.354000091552734,-105.30899810791016z"></path></g></g><g transform="matrix(1,0,0,1,300,300)" opacity="1" style="display: block;"><g opacity="1" transform="matrix(1,0,0,1,0,0)"><path fill="rgb(255,139,123)" fill-opacity="1" d=" M83.91000366210938,-75.71900177001953 C85.24299621582031,-73.58399963378906 86.34600067138672,-71.53500366210938 87.48999786376953,-69.40799713134766 C88.62899780273438,-67.302001953125 89.65799713134766,-65.13600158691406 90.66899871826172,-62.95199966430664 C92.65799713134766,-58.569000244140625 94.43800354003906,-54.04800033569336 95.76899719238281,-49.22100067138672 C95.9469985961914,-48.62900161743164 96.08200073242188,-48.000999450683594 96.23100280761719,-47.38600158691406 C96.23100280761719,-47.38600158691406 96.44999694824219,-46.459999084472656 96.44999694824219,-46.459999084472656 C96.44999694824219,-46.459999084472656 96.55899810791016,-45.99800109863281 96.55899810791016,-45.99800109863281 C96.55899810791016,-45.99800109863281 96.68800354003906,-45.236000061035156 96.68800354003906,-45.236000061035156 C96.9739990234375,-43.20500183105469 96.7229995727539,-41.547000885009766 96.3759994506836,-40.084999084472656 C95.65899658203125,-37.17100143432617 94.50299835205078,-34.84600067138672 93.26399993896484,-32.62799835205078 C90.73500061035156,-28.23699951171875 87.78299713134766,-24.496999740600586 84.37899780273438,-20.954999923706055 C84.37899780273438,-20.954999923706055 80.16799926757812,-24.14299964904785 80.16799926757812,-24.14299964904785 C82.24400329589844,-28.08300018310547 84.2959976196289,-32.21099853515625 85.80500030517578,-36.18000030517578 C86.53600311279297,-38.15399932861328 87.1510009765625,-40.16299819946289 87.33100128173828,-41.8120002746582 C87.41799926757812,-42.62300109863281 87.36100006103516,-43.319000244140625 87.2490005493164,-43.57899856567383 C87.2490005493164,-43.57899856567383 86.85299682617188,-44.80099868774414 86.85299682617188,-44.80099868774414 C86.68800354003906,-45.303001403808594 86.54299926757812,-45.801998138427734 86.34500122070312,-46.30799865722656 C84.90399932861328,-50.34299850463867 83.0719985961914,-54.395999908447266 81.07599639892578,-58.391998291015625 C79.10900115966797,-62.37300109863281 76.92900085449219,-66.4260025024414 74.78299713134766,-70.20899963378906 C74.78299713134766,-70.20899963378906 83.91000366210938,-75.71900177001953 83.91000366210938,-75.71900177001953z"></path></g><g opacity="1" transform="matrix(1,0,0,1,0,0)"><path fill="rgb(255,139,123)" fill-opacity="1" d=" M81.23600006103516,-25.575000762939453 C81.23600006103516,-25.575000762939453 76.64399719238281,-23.136999130249023 76.64399719238281,-23.136999130249023 C76.64399719238281,-23.136999130249023 81.9229965209961,-16.957000732421875 81.9229965209961,-16.957000732421875 C81.9229965209961,-16.957000732421875 85.21800231933594,-19.18600082397461 85.36599731445312,-22.59000015258789 C85.36599731445312,-22.59000015258789 81.23600006103516,-25.575000762939453 81.23600006103516,-25.575000762939453z"></path></g><g opacity="1" transform="matrix(1,0,0,1,0,0)"><path fill="rgb(255,139,123)" fill-opacity="1" d=" M70.46600341796875,-19.32699966430664 C70.46600341796875,-19.32699966430664 76.12200164794922,-14.84000015258789 76.12200164794922,-14.84000015258789 C76.12200164794922,-14.84000015258789 81.9229965209961,-16.957000732421875 81.9229965209961,-16.957000732421875 C81.9229965209961,-16.957000732421875 76.64399719238281,-23.136999130249023 76.64399719238281,-23.136999130249023 C76.64399719238281,-23.136999130249023 70.46600341796875,-19.32699966430664 70.46600341796875,-19.32699966430664z"></path></g><g opacity="1" transform="matrix(1,0,0,1,0,0)"><path fill="rgb(255,139,123)" fill-opacity="1" d=" M48.9010009765625,-87.86199951171875 C48.9010009765625,-87.86199951171875 48.944000244140625,-94.41600036621094 48.944000244140625,-94.41600036621094 C48.944000244140625,-94.41600036621094 57.624000549316406,-93.36699676513672 57.624000549316406,-93.36699676513672 C57.624000549316406,-93.36699676513672 57.474998474121094,-87.73100280761719 52.62799835205078,-86.0739974975586 C52.62799835205078,-86.0739974975586 48.9010009765625,-87.86199951171875 48.9010009765625,-87.86199951171875z"></path></g><g opacity="1" transform="matrix(1,0,0,1,0,0)"><path fill="rgb(255,139,123)" fill-opacity="1" d=" M51.395999908447266,-99.13600158691406 C51.395999908447266,-99.13600158691406 57.507999420166016,-97.37999725341797 57.507999420166016,-97.37999725341797 C57.507999420166016,-97.37999725341797 57.624000549316406,-93.36699676513672 57.624000549316406,-93.36699676513672 C57.624000549316406,-93.36699676513672 48.944000244140625,-94.41600036621094 48.944000244140625,-94.41600036621094 C48.944000244140625,-94.41600036621094 51.395999908447266,-99.13600158691406 51.395999908447266,-99.13600158691406z"></path></g><g opacity="0.2" transform="matrix(1,0,0,1,0,0)"><path fill="rgb(0,0,0)" fill-opacity="1" d=" M57.5099983215332,-97.37999725341797 C57.5099983215332,-97.37999725341797 51.400001525878906,-99.13999938964844 51.400001525878906,-99.13999938964844 C51.400001525878906,-99.13999938964844 50.209999084472656,-96.86000061035156 50.209999084472656,-96.86000061035156 C50.36000061035156,-92.98999786376953 52.720001220703125,-89.80999755859375 55.849998474121094,-88.37999725341797 C57.54999923706055,-90.61000061035156 57.619998931884766,-93.37000274658203 57.619998931884766,-93.37000274658203 C57.619998931884766,-93.37000274658203 57.5099983215332,-97.37999725341797 57.5099983215332,-97.37999725341797z"></path></g><g opacity="1" transform="matrix(1,0,0,1,0,0)"><path fill="rgb(64,123,255)" fill-opacity="1" d=" M70.54199981689453,-79.16699981689453 C71.47799682617188,-80.49299621582031 71.44000244140625,-84.68199920654297 70.44100189208984,-85.4209976196289 C68.8270034790039,-86.61399841308594 61.92399978637695,-86.88899993896484 52.625,-84.75 C53.625999450683594,-80.69200134277344 51.481998443603516,-78.56500244140625 51.481998443603516,-78.56500244140625 C51.481998443603516,-78.56500244140625 70.54199981689453,-79.16699981689453 70.54199981689453,-79.16699981689453z"></path></g><g opacity="1" transform="matrix(1,0,0,1,0,0)"><path fill="rgb(64,123,255)" fill-opacity="1" d=" M101.79499816894531,158.23699951171875 C101.08899688720703,158.38999938964844 100.38400268554688,158.42999267578125 100.04399871826172,158.14100646972656 C99.9010009765625,158.0189971923828 99.75800323486328,157.78700256347656 99.88300323486328,157.36700439453125 C99.9489974975586,157.14599609375 100.09300231933594,156.98199462890625 100.31199645996094,156.8769989013672 C101.26200103759766,156.4239959716797 103.44400024414062,157.31300354003906 103.53700256347656,157.3509979248047 C103.5979995727539,157.37600708007812 103.63800048828125,157.4340057373047 103.63999938964844,157.5 C103.64199829101562,157.5659942626953 103.6050033569336,157.62600708007812 103.5459976196289,157.65499877929688 C103.21199798583984,157.8159942626953 102.50399780273438,158.08399963378906 101.79499816894531,158.23699951171875z M100.6510009765625,157.11300659179688 C100.5790023803711,157.12899780273438 100.51300048828125,157.14999389648438 100.45500183105469,157.17799377441406 C100.322998046875,157.24099731445312 100.23999786376953,157.33399963378906 100.2020034790039,157.46200561523438 C100.11299896240234,157.76199340820312 100.2239990234375,157.8560028076172 100.26100158691406,157.88699340820312 C100.63899993896484,158.20899963378906 102.04299926757812,157.91200256347656 103.03299713134766,157.51600646972656 C102.36199951171875,157.27999877929688 101.2760009765625,156.97799682617188 100.6510009765625,157.11300659179688z"></path></g><g opacity="1" transform="matrix(1,0,0,1,0,0)"><path fill="rgb(64,123,255)" fill-opacity="1" d=" M103.50800323486328,157.66799926757812 C103.48100280761719,157.6739959716797 103.4540023803711,157.67300415039062 103.427001953125,157.6649932861328 C102.63200378417969,157.43299865722656 100.93099975585938,156.22500610351562 100.91000366210938,155.427001953125 C100.90599822998047,155.28199768066406 100.95700073242188,155.02000427246094 101.33599853515625,154.88800048828125 C101.58200073242188,154.802001953125 101.8290023803711,154.82200622558594 102.0739974975586,154.94700622558594 C103.01399993896484,155.427001953125 103.60800170898438,157.37399291992188 103.63300323486328,157.45700073242188 C103.6510009765625,157.51600646972656 103.63500213623047,157.5800018310547 103.59200286865234,157.6230010986328 C103.56900024414062,157.64599609375 103.53900146484375,157.66099548339844 103.50800323486328,157.66799926757812z M101.51799774169922,155.1820068359375 C101.49400329589844,155.18699645996094 101.47000122070312,155.19400024414062 101.44499969482422,155.20199584960938 C101.23899841308594,155.2740020751953 101.24199676513672,155.375 101.24299621582031,155.41799926757812 C101.25499725341797,155.88999938964844 102.37699890136719,156.83799743652344 103.20099639892578,157.2220001220703 C102.99500274658203,156.66000366210938 102.5260009765625,155.5500030517578 101.9229965209961,155.2429962158203 C101.78500366210938,155.17300415039062 101.6520004272461,155.1529998779297 101.51799774169922,155.1820068359375z"></path></g><g opacity="1" transform="matrix(1,0,0,1,0,0)"><path fill="rgb(64,123,255)" fill-opacity="1" d=" M49.8650016784668,159.41700744628906 C48.96200180053711,159.41700744628906 48.09000015258789,159.29299926757812 47.79800033569336,158.88699340820312 C47.69599914550781,158.7449951171875 47.6150016784668,158.5030059814453 47.8120002746582,158.15899658203125 C47.922000885009766,157.96600341796875 48.0989990234375,157.8350067138672 48.3390007019043,157.77000427246094 C49.5099983215332,157.45199584960938 51.96900177001953,158.8520050048828 52.073001861572266,158.91200256347656 C52.132999420166016,158.94700622558594 52.165000915527344,159.01499938964844 52.15399932861328,159.08299255371094 C52.143001556396484,159.1510009765625 52.09000015258789,159.20599365234375 52.02199935913086,159.22000122070312 C51.573001861572266,159.3090057373047 50.70600128173828,159.41700744628906 49.8650016784668,159.41700744628906z M48.749000549316406,158.05299377441406 C48.63199996948242,158.05299377441406 48.52299880981445,158.06500244140625 48.426998138427734,158.09100341796875 C48.27299880981445,158.13299560546875 48.16699981689453,158.20899963378906 48.10100173950195,158.32400512695312 C47.983001708984375,158.531005859375 48.025001525878906,158.63400268554688 48.06800079345703,158.6929931640625 C48.39500045776367,159.1479949951172 50.17300033569336,159.1580047607422 51.48099899291992,158.97300720214844 C50.82899856567383,158.63800048828125 49.57099914550781,158.05299377441406 48.749000549316406,158.05299377441406z"></path></g><g opacity="1" transform="matrix(1,0,0,1,0,0)"><path fill="rgb(64,123,255)" fill-opacity="1" d=" M51.98899841308594,159.22300720214844 C51.965999603271484,159.22300720214844 51.94300079345703,159.21800231933594 51.92100143432617,159.20799255371094 C51.071998596191406,158.82699584960938 49.39099884033203,157.30599975585938 49.51900100708008,156.51100158691406 C49.54899978637695,156.32400512695312 49.680999755859375,156.09100341796875 50.138999938964844,156.0449981689453 C50.48099899291992,156.00999450683594 50.790000915527344,156.10699462890625 51.0629997253418,156.33099365234375 C51.95800018310547,157.0659942626953 52.14699935913086,158.96099853515625 52.154998779296875,159.04100036621094 C52.1609992980957,159.10000610351562 52.1349983215332,159.1580047607422 52.08700180053711,159.19200134277344 C52.05799865722656,159.21299743652344 52.02299880981445,159.22300720214844 51.98899841308594,159.22300720214844z M50.27299880981445,156.37100219726562 C50.2400016784668,156.37100219726562 50.207000732421875,156.37399291992188 50.17300033569336,156.3769989013672 C49.87300109863281,156.40699768066406 49.854000091552734,156.52499389648438 49.847999572753906,156.56399536132812 C49.770999908447266,157.04100036621094 50.91400146484375,158.23599243164062 51.779998779296875,158.7570037841797 C51.689998626708984,158.20399475097656 51.43899917602539,157.07000732421875 50.85100173950195,156.58799743652344 C50.67399978637695,156.4429931640625 50.48400115966797,156.37100219726562 50.27299880981445,156.37100219726562z"></path></g><g opacity="1" transform="matrix(1,0,0,1,0,0)"><path fill="rgb(255,139,123)" fill-opacity="1" d=" M59.7239990234375,159.05599975585938 C59.7239990234375,159.05599975585938 52.689998626708984,159.05599975585938 52.689998626708984,159.05599975585938 C52.689998626708984,159.05599975585938 51.9900016784668,142.76800537109375 51.9900016784668,142.76800537109375 C51.9900016784668,142.76800537109375 59.02299880981445,142.76800537109375 59.02299880981445,142.76800537109375 C59.02299880981445,142.76800537109375 59.7239990234375,159.05599975585938 59.7239990234375,159.05599975585938z"></path></g><g opacity="1" transform="matrix(1,0,0,1,0,0)"><path fill="rgb(255,139,123)" fill-opacity="1" d=" M111.3489990234375,155.8000030517578 C111.3489990234375,155.8000030517578 104.4749984741211,157.28799438476562 104.4749984741211,157.28799438476562 C104.4749984741211,157.28799438476562 97.572998046875,142.11700439453125 97.572998046875,142.11700439453125 C97.572998046875,142.11700439453125 104.4469985961914,140.6280059814453 104.4469985961914,140.6280059814453 C104.4469985961914,140.6280059814453 111.3489990234375,155.8000030517578 111.3489990234375,155.8000030517578z"></path></g><g opacity="1" transform="matrix(1,0,0,1,0,0)"><path fill="rgb(38,50,56)" fill-opacity="1" d=" M103.81400299072266,156.59800720214844 C103.81400299072266,156.59800720214844 111.53700256347656,154.92599487304688 111.53700256347656,154.92599487304688 C111.81800079345703,154.86500549316406 112.10399627685547,155.00799560546875 112.2239990234375,155.2689971923828 C112.2239990234375,155.2689971923828 114.90499877929688,161.0850067138672 114.90499877929688,161.0850067138672 C115.18299865722656,161.68800354003906 114.81500244140625,162.39700317382812 114.16300201416016,162.5260009765625 C111.45700073242188,163.06300354003906 110.11199951171875,163.18899536132812 106.71600341796875,163.9239959716797 C104.62699890136719,164.37600708007812 99.90899658203125,165.52499389648438 97.02400207519531,166.14999389648438 C94.2020034790039,166.76100158691406 93.1449966430664,164.0030059814453 94.2699966430664,163.48899841308594 C99.31600189208984,161.1840057373047 101.4229965209961,159.1529998779297 102.78900146484375,157.26199340820312 C103.03500366210938,156.92100524902344 103.40299987792969,156.68699645996094 103.81400299072266,156.59800720214844z"></path></g><g opacity="1" transform="matrix(1,0,0,1,0,0)"><path fill="rgb(38,50,56)" fill-opacity="1" d=" M52.736000061035156,158.24200439453125 C52.736000061035156,158.24200439453125 60.417999267578125,158.24200439453125 60.417999267578125,158.24200439453125 C60.70600128173828,158.24200439453125 60.95399856567383,158.4409942626953 61.01599884033203,158.7220001220703 C61.01599884033203,158.7220001220703 62.40599822998047,164.9739990234375 62.40599822998047,164.9739990234375 C62.54999923706055,165.6219940185547 62.05799865722656,166.23599243164062 61.39400100708008,166.22500610351562 C58.62300109863281,166.17799377441406 54.619998931884766,166.01600646972656 51.137001037597656,166.01600646972656 C47.064998626708984,166.01600646972656 43.547000885009766,166.23800659179688 38.77199935913086,166.23800659179688 C35.8849983215332,166.23800659179688 35.08300018310547,163.3179931640625 36.29199981689453,163.0540008544922 C41.79499816894531,161.85000610351562 46.2869987487793,161.7220001220703 51.04199981689453,158.7899932861328 C51.558998107910156,158.4709930419922 52.12900161743164,158.24200439453125 52.736000061035156,158.24200439453125z"></path></g><g opacity="1" transform="matrix(1,0,0,1,0,0)"><g opacity="1" transform="matrix(1,0,0,1,0,0)"><path fill="rgb(64,123,255)" fill-opacity="1" d=" M81.16699981689453,-81.01799774169922 C87.75900268554688,-79.50700378417969 93.19499969482422,-62.676998138427734 93.19499969482422,-62.676998138427734 C93.19499969482422,-62.676998138427734 79.95600128173828,-52.58700180053711 79.95600128173828,-52.58700180053711 C79.95600128173828,-52.58700180053711 75.0979995727539,-57.167999267578125 72.93499755859375,-65.58599853515625 C70.66899871826172,-74.40599822998047 74.4260025024414,-82.56300354003906 81.16699981689453,-81.01799774169922z"></path></g><g opacity="0.4" transform="matrix(1,0,0,1,0,0)"><path fill="rgb(0,0,0)" fill-opacity="1" d=" M81.16699981689453,-81.01799774169922 C87.75900268554688,-79.50700378417969 93.19499969482422,-62.676998138427734 93.19499969482422,-62.676998138427734 C93.19499969482422,-62.676998138427734 79.95600128173828,-52.58700180053711 79.95600128173828,-52.58700180053711 C79.95600128173828,-52.58700180053711 75.0979995727539,-57.167999267578125 72.93499755859375,-65.58599853515625 C70.66899871826172,-74.40599822998047 74.4260025024414,-82.56300354003906 81.16699981689453,-81.01799774169922z"></path></g></g><g opacity="1" transform="matrix(1,0,0,1,0,0)"><path fill="rgb(255,139,123)" fill-opacity="1" d=" M46.50199890136719,-60.93299865722656 C44.856998443603516,-59.15800094604492 43.215999603271484,-57.57899856567383 41.516998291015625,-55.95399856567383 C40.67399978637695,-55.14699935913086 39.8120002746582,-54.35300064086914 38.930999755859375,-53.57699966430664 C38.930999755859375,-53.57699966430664 37.60300064086914,-52.41400146484375 37.60300064086914,-52.41400146484375 C37.60300064086914,-52.41400146484375 37.268001556396484,-52.125 37.268001556396484,-52.125 C37.10599899291992,-51.986000061035156 36.909000396728516,-51.82099914550781 36.698001861572266,-51.659000396728516 C36.257999420166016,-51.33399963378906 35.7760009765625,-50.95500183105469 34.76599884033203,-50.51900100708008 C34.23099899291992,-50.3129997253418 33.542999267578125,-50.040000915527344 32.33399963378906,-50.01599884033203 C31.759000778198242,-50.00699996948242 30.979000091552734,-50.106998443603516 30.233999252319336,-50.388999938964844 C29.472999572753906,-50.67100143432617 28.73699951171875,-51.159000396728516 28.232999801635742,-51.6609992980957 C27.187000274658203,-52.71200180053711 26.871000289916992,-53.632999420166016 26.665000915527344,-54.25 C26.474000930786133,-54.88600158691406 26.41900062561035,-55.34000015258789 26.3799991607666,-55.73699951171875 C26.316999435424805,-56.51300048828125 26.35700035095215,-57.03900146484375 26.399999618530273,-57.525001525878906 C26.44700050354004,-58.005001068115234 26.51300048828125,-58.41999816894531 26.586000442504883,-58.8120002746582 C26.8799991607666,-60.354000091552734 27.295000076293945,-61.597999572753906 27.746999740600586,-62.84400177001953 C28.20400047302246,-64.0780029296875 28.711000442504883,-65.26100158691406 29.301000595092773,-66.45800018310547 C29.93600082397461,-67.73200225830078 30.548999786376953,-68.65499877929688 31.15999984741211,-69.72100067138672 C33.63100051879883,-73.85099792480469 36.529998779296875,-77.62200164794922 39.611000061035156,-81.1780014038086 C42.75899887084961,-84.70899963378906 46.0629997253418,-87.93800354003906 49.862998962402344,-90.89600372314453 C49.862998962402344,-90.89600372314453 53.54399871826172,-87.10800170898438 53.54399871826172,-87.10800170898438 C50.95800018310547,-83.6500015258789 48.41600036621094,-79.94200134277344 46.066001892089844,-76.28600311279297 C43.71900177001953,-72.60299682617188 41.54199981689453,-68.85399627685547 39.667999267578125,-65.04100036621094 C39.236000061035156,-64.0989990234375 38.70399856567383,-63.06700134277344 38.40399932861328,-62.27899932861328 C38.053001403808594,-61.417999267578125 37.73099899291992,-60.49300003051758 37.465999603271484,-59.582000732421875 C37.20399856567383,-58.68199920654297 36.99300003051758,-57.74399948120117 36.89799880981445,-57.055999755859375 C36.875999450683594,-56.88999938964844 36.8650016784668,-56.744998931884766 36.8650016784668,-56.6609992980957 C36.86199951171875,-56.58399963378906 36.882999420166016,-56.54100036621094 36.87300109863281,-56.75299835205078 C36.862998962402344,-56.86899948120117 36.85200119018555,-57.04199981689453 36.74399948120117,-57.40800094604492 C36.62200164794922,-57.75600051879883 36.43199920654297,-58.41600036621094 35.59000015258789,-59.268001556396484 C35.183998107910156,-59.66699981689453 34.57400131225586,-60.084999084472656 33.94300079345703,-60.31100082397461 C33.332000732421875,-60.54999923706055 32.69200134277344,-60.619998931884766 32.25899887084961,-60.61800003051758 C31.333999633789062,-60.59700012207031 30.920000076293945,-60.40800094604492 30.645999908447266,-60.310001373291016 C30.1560001373291,-60.097999572753906 30.145999908447266,-60.04100036621094 30.150999069213867,-60.0629997253418 C30.150999069213867,-60.0629997253418 30.53499984741211,-60.41299819946289 30.53499984741211,-60.41299819946289 C30.53499984741211,-60.41299819946289 31.736000061035156,-61.513999938964844 31.736000061035156,-61.513999938964844 C31.736000061035156,-61.513999938964844 34.125999450683594,-63.75299835205078 34.125999450683594,-63.75299835205078 C35.70800018310547,-65.24400329589844 37.30099868774414,-66.83399963378906 38.80400085449219,-68.30899810791016 C38.80400085449219,-68.30899810791016 46.50199890136719,-60.93299865722656 46.50199890136719,-60.93299865722656z"></path></g><g opacity="0.2" transform="matrix(1,0,0,1,0,0)"><path fill="rgb(0,0,0)" fill-opacity="1" d=" M75.51699829101562,-68.64199829101562 C79.0979995727539,-65.0989990234375 80.26499938964844,-58.645999908447266 80.54299926757812,-53.03499984741211 C80.54299926757812,-53.03499984741211 79.95899963378906,-52.584999084472656 79.95899963378906,-52.584999084472656 C79.95899963378906,-52.584999084472656 75.09600067138672,-57.17100143432617 72.93199920654297,-65.58699798583984 C72.7979965209961,-66.11299896240234 72.68299865722656,-66.64099884033203 72.58699798583984,-67.15799713134766 C72.58699798583984,-67.15799713134766 75.51699829101562,-68.64199829101562 75.51699829101562,-68.64199829101562z"></path></g><g opacity="1" transform="matrix(1,0,0,1,0,0)"><g opacity="1" transform="matrix(1,0,0,1,0,0)"><path fill="rgb(64,123,255)" fill-opacity="1" d=" M39.507999420166016,-73.96499633789062 C38.06999969482422,-66.36599731445312 37.17100143432617,-50.762001037597656 41.345001220703125,-19.860000610351562 C41.345001220703125,-19.860000610351562 78.96600341796875,-19.860000610351562 78.96600341796875,-19.860000610351562 C79.2249984741211,-25.635000228881836 75.59700012207031,-53.80699920654297 81.16699981689453,-81.01799774169922 C81.16699981689453,-81.01799774169922 74.71800231933594,-82.31199645996094 68.572998046875,-82.60800170898438 C63.76599884033203,-82.83999633789062 56.805999755859375,-82.99299621582031 52.58000183105469,-82.60700225830078 C50.816001892089844,-82.44599914550781 49.084999084472656,-82.19200134277344 47.54199981689453,-81.91899871826172 C43.4739990234375,-81.1989974975586 40.2760009765625,-78.02400207519531 39.507999420166016,-73.96499633789062z"></path></g><g opacity="0.4" transform="matrix(1,0,0,1,0,0)"><path fill="rgb(0,0,0)" fill-opacity="1" d=" M39.507999420166016,-73.96499633789062 C38.06999969482422,-66.36599731445312 37.17100143432617,-50.762001037597656 41.345001220703125,-19.860000610351562 C41.345001220703125,-19.860000610351562 78.96600341796875,-19.860000610351562 78.96600341796875,-19.860000610351562 C79.2249984741211,-25.635000228881836 75.59700012207031,-53.80699920654297 81.16699981689453,-81.01799774169922 C81.16699981689453,-81.01799774169922 74.71800231933594,-82.31199645996094 68.572998046875,-82.60800170898438 C63.76599884033203,-82.83999633789062 56.805999755859375,-82.99299621582031 52.58000183105469,-82.60700225830078 C50.816001892089844,-82.44599914550781 49.084999084472656,-82.19200134277344 47.54199981689453,-81.91899871826172 C43.4739990234375,-81.1989974975586 40.2760009765625,-78.02400207519531 39.507999420166016,-73.96499633789062z"></path></g></g><g opacity="0.2" transform="matrix(1,0,0,1,0,0)"><path fill="rgb(0,0,0)" fill-opacity="1" d=" M45.26499938964844,-62.73400115966797 C45.26499938964844,-62.73400115966797 38.46699905395508,-64.36199951171875 38.46699905395508,-64.36199951171875 C38.25600051879883,-60.244998931884766 38.237998962402344,-55.141998291015625 38.54399871826172,-48.832000732421875 C41.67499923706055,-52.39400100708008 45.66699981689453,-57.946998596191406 45.26499938964844,-62.73400115966797z"></path></g><g opacity="1" transform="matrix(1,0,0,1,0,0)"><g opacity="0.2" transform="matrix(1,0,0,1,0,0)"><path fill="rgb(0,0,0)" fill-opacity="1" d=" M51.99100112915039,142.77200317382812 C51.99100112915039,142.77200317382812 52.35100173950195,151.16799926757812 52.35100173950195,151.16799926757812 C52.35100173950195,151.16799926757812 59.387001037597656,151.16799926757812 59.387001037597656,151.16799926757812 C59.387001037597656,151.16799926757812 59.02799987792969,142.77200317382812 59.02799987792969,142.77200317382812 C59.02799987792969,142.77200317382812 51.99100112915039,142.77200317382812 51.99100112915039,142.77200317382812z"></path></g><g opacity="0.2" transform="matrix(1,0,0,1,0,0)"><path fill="rgb(0,0,0)" fill-opacity="1" d=" M104.45099639892578,140.6320037841797 C104.45099639892578,140.6320037841797 97.572998046875,142.12100219726562 97.572998046875,142.12100219726562 C97.572998046875,142.12100219726562 101.13400268554688,149.9409942626953 101.13400268554688,149.9409942626953 C101.13400268554688,149.9409942626953 108.01200103759766,148.45199584960938 108.01200103759766,148.45199584960938 C108.01200103759766,148.45199584960938 104.45099639892578,140.6320037841797 104.45099639892578,140.6320037841797z"></path></g></g><g opacity="1" transform="matrix(1,0,0,1,0,0)"><path fill="rgb(64,123,255)" fill-opacity="1" d=" M54.691001892089844,-19.860000610351562 C54.691001892089844,-19.860000610351562 62.67300033569336,33.893001556396484 67.05500030517578,54.03099822998047 C71.85399627685547,76.08399963378906 97.58599853515625,149.0449981689453 97.58599853515625,149.0449981689453 C97.58599853515625,149.0449981689453 110.177001953125,146.31900024414062 110.177001953125,146.31900024414062 C110.177001953125,146.31900024414062 92.18399810791016,86.86100006103516 88.15599822998047,56.03099822998047 C85.06199645996094,32.3489990234375 78.96600341796875,-19.860000610351562 78.96600341796875,-19.860000610351562 C78.96600341796875,-19.860000610351562 54.691001892089844,-19.860000610351562 54.691001892089844,-19.860000610351562z"></path></g><g opacity="1" transform="matrix(1,0,0,1,0,0)"><path fill="rgb(38,50,56)" fill-opacity="1" d=" M94.57099914550781,144.8419952392578 C94.51699829101562,144.85400390625 96.91799926757812,149.39500427246094 96.91799926757812,149.39500427246094 C96.91799926757812,149.39500427246094 111.08399963378906,146.3280029296875 111.08399963378906,146.3280029296875 C111.08399963378906,146.3280029296875 109.88999938964844,142.06900024414062 109.88999938964844,142.06900024414062 C109.88999938964844,142.06900024414062 94.57099914550781,144.8419952392578 94.57099914550781,144.8419952392578z"></path></g><g opacity="0.3" transform="matrix(1,0,0,1,0,0)"><path fill="rgb(0,0,0)" fill-opacity="1" d=" M59.73500061035156,-0.7080000042915344 C68.96499633789062,1.1019999980926514 67.98899841308594,35.52299880981445 66.87799835205078,53.22600173950195 C64.21600341796875,40.71200180053711 60.31999969482422,16.631000518798828 57.65800094604492,-0.45899999141693115 C58.270999908447266,-0.7649999856948853 58.95899963378906,-0.8610000014305115 59.73500061035156,-0.7080000042915344z"></path></g><g opacity="1" transform="matrix(1,0,0,1,0,0)"><path fill="rgb(64,123,255)" fill-opacity="1" d=" M41.345001220703125,-19.860000610351562 C41.345001220703125,-19.860000610351562 40.375999450683594,32.72999954223633 41.14099884033203,54.18000030517578 C41.9370002746582,76.49099731445312 49.72999954223633,149.54200744628906 49.72999954223633,149.54200744628906 C49.72999954223633,149.54200744628906 61.64500045776367,149.54200744628906 61.64500045776367,149.54200744628906 C61.64500045776367,149.54200744628906 62.08300018310547,77.79299926757812 62.612998962402344,55.88199996948242 C63.191001892089844,31.9950008392334 66.07499694824219,-19.860000610351562 66.07499694824219,-19.860000610351562 C66.07499694824219,-19.860000610351562 41.345001220703125,-19.860000610351562 41.345001220703125,-19.860000610351562z"></path></g><g opacity="1" transform="matrix(1,0,0,1,0,0)"><path fill="rgb(38,50,56)" fill-opacity="1" d=" M47.4370002746582,144.79600524902344 C47.38199996948242,144.79600524902344 48.10900115966797,149.7429962158203 48.10900115966797,149.7429962158203 C48.10900115966797,149.7429962158203 62.604000091552734,149.7429962158203 62.604000091552734,149.7429962158203 C62.604000091552734,149.7429962158203 62.994998931884766,145.3280029296875 62.994998931884766,145.3280029296875 C62.994998931884766,145.3280029296875 47.4370002746582,144.79600524902344 47.4370002746582,144.79600524902344z"></path></g><g opacity="1" transform="matrix(1,0,0,1,0,0)"><g opacity="1" transform="matrix(1,0,0,1,0,0)"><path fill="rgb(64,123,255)" fill-opacity="1" d=" M54.25199890136719,-71.65799713134766 C57.625,-62.569000244140625 37.810001373291016,-51.862998962402344 37.810001373291016,-51.862998962402344 C37.810001373291016,-51.862998962402344 29.23200035095215,-62.89099884033203 29.23200035095215,-62.89099884033203 C29.23200035095215,-62.89099884033203 34.95399856567383,-74.28199768066406 41.97700119018555,-79.41600036621094 C50.65299987792969,-85.75900268554688 51.685001373291016,-78.5770034790039 54.25199890136719,-71.65799713134766z"></path></g><g opacity="0.4" transform="matrix(1,0,0,1,0,0)"><path fill="rgb(0,0,0)" fill-opacity="1" d=" M54.25199890136719,-71.65799713134766 C57.625,-62.569000244140625 37.810001373291016,-51.862998962402344 37.810001373291016,-51.862998962402344 C37.810001373291016,-51.862998962402344 29.23200035095215,-62.89099884033203 29.23200035095215,-62.89099884033203 C29.23200035095215,-62.89099884033203 34.95399856567383,-74.28199768066406 41.97700119018555,-79.41600036621094 C50.65299987792969,-85.75900268554688 51.685001373291016,-78.5770034790039 54.25199890136719,-71.65799713134766z"></path></g></g></g></g></svg>